<svg width="22" height="24" viewBox="0 0 22 24" fill="none" xmlns="http://www.w3.org/2000/svg">
<path d="M19.0401 2.81134H17.8916V0.51416H15.5944V2.81134H6.40566V0.51416H4.10849V2.81134H2.9599C2.35065 2.81134 1.76635 3.05336 1.33555 3.48416C0.904743 3.91497 0.66272 4.49926 0.66272 5.10851V21.1888C0.66272 21.798 0.904743 22.3823 1.33555 22.8131C1.76635 23.2439 2.35065 23.4859 2.9599 23.4859H19.0401C20.3036 23.4859 21.3373 22.4522 21.3373 21.1888V5.10851C21.3373 3.84507 20.3036 2.81134 19.0401 2.81134ZM11 6.2571C12.9067 6.2571 14.4458 7.79621 14.4458 9.70287C14.4458 11.6095 12.9067 13.1486 11 13.1486C9.09336 13.1486 7.55425 11.6095 7.55425 9.70287C7.55425 7.79621 9.09336 6.2571 11 6.2571ZM17.8916 20.0402H4.10849V18.8916C4.10849 16.5944 8.70284 15.331 11 15.331C13.2972 15.331 17.8916 16.5944 17.8916 18.8916V20.0402Z" fill="#EB6309"/>
</svg>
