<svg width="24" height="22" viewBox="0 0 24 22" fill="none" xmlns="http://www.w3.org/2000/svg">
<path fill-rule="evenodd" clip-rule="evenodd" d="M10.9445 0.0109863C12.2369 0.0124406 13.476 0.52649 14.3898 1.44036C15.3037 2.35422 15.8177 3.59328 15.8192 4.88568V5.90985C15.8192 6.12843 15.7324 6.33806 15.5778 6.49263C15.4232 6.64719 15.2136 6.73402 14.995 6.73402C14.7764 6.73402 14.5668 6.64719 14.4123 6.49263C14.2577 6.33806 14.1709 6.12843 14.1709 5.90985V4.88568C14.17 4.03027 13.8298 3.21014 13.2249 2.60527C12.62 2.0004 11.7999 1.6602 10.9445 1.65933H5.5874C4.73238 1.66049 3.91276 2.00089 3.30848 2.60579C2.70419 3.21069 2.36463 4.03066 2.36434 4.88568V17.1153C2.36493 17.9701 2.70461 18.7898 3.30886 19.3944C3.91312 19.9991 4.73257 20.3394 5.5874 20.3405H10.9577C11.8096 20.3394 12.6263 20.0005 13.2288 19.3982C13.8314 18.7959 14.1705 17.9793 14.172 17.1274V16.0911C14.172 15.8725 14.2588 15.6629 14.4134 15.5083C14.5679 15.3538 14.7775 15.2669 14.9961 15.2669C15.2147 15.2669 15.4243 15.3538 15.5789 15.5083C15.7335 15.6629 15.8203 15.8725 15.8203 16.0911V17.1274C15.8186 18.4164 15.3056 19.6521 14.3941 20.5634C13.4825 21.4748 12.2467 21.9874 10.9577 21.9889H5.5874C4.29558 21.9871 3.0572 21.473 2.14395 20.5594C1.2307 19.6457 0.717166 18.4071 0.716003 17.1153L0.716003 4.88568C0.717166 3.59376 1.23067 2.35504 2.14389 1.4412C3.0571 0.527364 4.29548 0.0130226 5.5874 0.0109863L10.9445 0.0109863ZM19.8236 7.21314L23.0411 10.4164C23.0708 10.445 23.0961 10.4747 23.1192 10.5054L23.0422 10.4164C23.1196 10.4925 23.1809 10.5833 23.2224 10.6836C23.264 10.7838 23.2849 10.8914 23.284 10.9999L23.2785 11.0681L23.2763 11.112V11.1175L23.284 10.9999C23.284 11.1101 23.2619 11.2192 23.2191 11.3208C23.1762 11.4223 23.1135 11.5142 23.0345 11.5911L19.8236 14.7878C19.7471 14.8645 19.6563 14.9253 19.5562 14.9667C19.4562 15.0081 19.349 15.0293 19.2407 15.0291C19.1324 15.0289 19.0253 15.0073 18.9254 14.9655C18.8255 14.9237 18.7349 14.8626 18.6587 14.7856C18.5047 14.6308 18.4184 14.4212 18.4188 14.2027C18.4192 13.9843 18.5063 13.775 18.6609 13.6208L20.4631 11.8241H9.22803C9.00945 11.8241 8.79982 11.7373 8.64526 11.5827C8.4907 11.4281 8.40386 11.2185 8.40386 10.9999C8.40386 10.7813 8.4907 10.5717 8.64526 10.4171C8.79982 10.2626 9.00945 10.1758 9.22803 10.1758H20.4653L18.6609 8.38016C18.5843 8.30382 18.5235 8.21314 18.4819 8.11329C18.4403 8.01343 18.4188 7.90637 18.4186 7.7982C18.4184 7.69004 18.4395 7.58289 18.4807 7.48289C18.5219 7.38288 18.5824 7.29196 18.6587 7.21533C18.7351 7.13871 18.8258 7.07787 18.9256 7.03628C19.0255 6.9947 19.1325 6.9732 19.2407 6.97299C19.3489 6.97279 19.456 6.99389 19.556 7.03509C19.656 7.0763 19.7469 7.1368 19.8236 7.21314Z" fill="#EB6309"/>
</svg>
