<svg width="22" height="22" viewBox="0 0 22 22" fill="none" xmlns="http://www.w3.org/2000/svg">
<path fill-rule="evenodd" clip-rule="evenodd" d="M7.43055 9.99033C7.31124 9.7548 6.97742 9.61076 6.64422 9.70101C6.51056 9.73707 6.52924 9.83277 6.54837 9.93076C6.55941 9.98733 6.5706 10.0447 6.55272 10.0917C6.54775 10.1218 6.54775 10.1525 6.55272 10.1826V10.5733C6.55272 10.6007 6.55272 10.6304 6.5625 10.6534C6.57152 10.6772 6.59005 10.6944 6.62814 10.6957C6.64317 10.6962 6.65822 10.6967 6.67327 10.6972C6.89543 10.7049 7.11941 10.7127 7.30815 10.5535C7.39014 10.488 7.44707 10.3962 7.46936 10.2936C7.49165 10.1911 7.47795 10.084 7.43055 9.99033ZM10.4824 10.9786C10.53 10.8364 10.5788 10.6903 10.6297 10.538C10.6301 10.5392 10.6304 10.5403 10.6308 10.5414C10.6313 10.5401 10.6317 10.5387 10.6322 10.5374C10.6818 10.686 10.7297 10.829 10.7764 10.9687C10.8785 11.2741 10.9753 11.5634 11.0742 11.8603H11.0715C11.0715 11.8606 11.0716 11.8608 11.0717 11.861H10.1871C10.1873 11.8602 10.1876 11.8594 10.1878 11.8587L10.1871 11.8579C10.2027 11.8113 10.2182 11.7649 10.2338 11.7185C10.3156 11.4745 10.3967 11.2323 10.4824 10.9786ZM3.73487 9.80441C3.80389 9.87228 3.84422 9.96406 3.84753 10.0608C3.85192 10.1112 3.84626 10.162 3.83088 10.2102C3.8155 10.2584 3.7907 10.303 3.75792 10.3415C3.72514 10.3801 3.68503 10.4117 3.63992 10.4346C3.59482 10.4575 3.54561 10.4712 3.49516 10.475C3.41865 10.4808 3.34187 10.4822 3.26519 10.4793C3.05974 10.4799 2.95744 10.4802 2.90649 10.4292C2.85595 10.3787 2.85595 10.2776 2.85595 10.0763C2.85595 9.89776 2.85595 9.80375 2.89713 9.75424C2.94189 9.69607 3.03843 9.69607 3.24665 9.69607C3.2722 9.69607 3.29775 9.69545 3.3233 9.69483C3.37441 9.6936 3.42551 9.69236 3.47661 9.69607C3.5734 9.69775 3.66584 9.73654 3.73487 9.80441ZM2.86438 11.6582C2.86437 11.6553 2.86445 11.6524 2.86461 11.6495C2.86832 11.6359 2.86832 11.623 2.86832 11.6112L2.87203 11.5877C2.87279 11.5831 2.87407 11.5786 2.87532 11.5741C2.87711 11.5678 2.87883 11.5617 2.87883 11.5562C2.88043 11.5493 2.88249 11.5425 2.88501 11.5358C2.8868 11.5295 2.88907 11.5233 2.89181 11.5173C2.89274 11.5152 2.89418 11.5131 2.89563 11.511C2.89805 11.5075 2.90046 11.504 2.90046 11.5006C2.90283 11.4952 2.90596 11.4902 2.90974 11.4857C2.91291 11.4808 2.91664 11.4762 2.92086 11.4721L2.93014 11.4629C2.93468 11.4585 2.93965 11.4545 2.94497 11.4511C2.95052 11.4472 2.9563 11.4437 2.96228 11.4406L2.97712 11.4332C2.98436 11.43 2.99179 11.4273 2.99937 11.4251L3.03275 11.4165L3.0581 11.4122C3.06745 11.4089 3.07848 11.4086 3.08923 11.4083C3.09696 11.4081 3.10454 11.4079 3.11126 11.4066C3.12734 11.4035 3.14403 11.4035 3.16257 11.4035H3.19039H3.39687C3.42702 11.4035 3.45752 11.403 3.48815 11.4024C3.54983 11.4013 3.61207 11.4002 3.6732 11.4035L3.68062 11.4029C3.81451 11.4073 3.94175 11.4623 4.0366 11.557C4.13144 11.6516 4.18682 11.7787 4.19153 11.9126C4.19614 12.0437 4.15183 12.1717 4.0674 12.2719C4.06621 12.2733 4.06501 12.2748 4.06381 12.2763C3.97722 12.3809 3.85285 12.4471 3.71771 12.4606C3.56694 12.4737 3.41426 12.4722 3.26086 12.4706C3.16769 12.4697 3.07426 12.4688 2.98083 12.4711C2.89119 12.4711 2.864 12.4368 2.86437 12.359C2.86436 12.3586 2.86436 12.3582 2.86436 12.3577C2.86435 12.3532 2.86443 12.3486 2.86461 12.3438V12.0545V12.0514V12.0508V11.9308V11.9277V11.9271V11.7583V11.7553V11.7546V11.6916V11.6885V11.6879V11.6699C2.86443 11.6667 2.86435 11.6634 2.86439 11.6601C2.86438 11.6594 2.86438 11.6588 2.86438 11.6582ZM21.7206 9.44076C21.1387 10.4196 21.1362 11.4035 21.7132 12.3926C22.1911 13.2092 22.0588 14.0914 21.4134 14.6818C21.3503 14.7555 21.2817 14.8244 21.2081 14.8876C21.1083 14.972 21.0005 15.0463 20.8861 15.1096C20.6658 15.2302 20.4599 15.3754 20.2722 15.5423C19.7882 16.0566 19.5501 16.7113 19.5501 17.5069C19.5508 18.1269 19.3208 18.6351 18.9264 18.9664C18.6532 19.2664 18.2869 19.4657 17.8866 19.5321C17.7411 19.5576 17.5943 19.5568 17.4472 19.556C17.3093 19.5552 17.1711 19.5544 17.0335 19.5753C16.4666 19.6619 15.99 19.8727 15.6012 20.2115C15.422 20.4009 15.2666 20.6114 15.1381 20.8383C15.0267 21.0358 14.886 21.2153 14.7209 21.3706C14.3666 21.786 13.895 22.0005 13.2935 21.9962C12.976 21.9863 12.6672 21.8908 12.3996 21.7198C11.4208 21.1383 10.4368 21.1361 9.4477 21.713C8.48086 22.2762 7.42993 21.9912 6.87356 21.0176C6.30977 20.0328 5.45791 19.5481 4.33157 19.5494C3.20523 19.5506 2.44857 18.7872 2.4498 17.6664C2.45104 16.5456 1.97689 15.6993 1.00015 15.138C-0.00131706 14.5625 -0.279502 13.5258 0.297268 12.5311C0.856523 11.5659 0.857554 10.6015 0.300359 9.63796C-0.0377902 9.05253 -0.0860089 8.4566 0.133448 7.94783C0.287995 7.58619 0.577308 7.26906 0.993349 7.02982C1.76918 6.58225 2.2322 5.95726 2.38737 5.15362C2.42891 4.93934 2.44961 4.72155 2.44918 4.50328C2.44857 3.88509 2.67173 3.38127 3.05872 3.04992C3.39563 2.67097 3.89451 2.44904 4.46819 2.45336C5.25082 2.46016 5.90795 2.23391 6.43341 1.75357C6.60141 1.56982 6.74803 1.36762 6.87047 1.15084C6.98078 0.954951 7.1207 0.777287 7.28528 0.624143C7.85463 -0.0329919 8.77141 -0.200521 9.56516 0.264357C10.1289 0.597561 10.7199 0.758908 11.3727 0.697089C11.8191 0.656907 12.2172 0.488142 12.6017 0.264357C12.8074 0.140407 13.0357 0.0585467 13.2733 0.023527C13.5109 -0.0114928 13.7531 0.00102527 13.9858 0.0603547C14.3365 0.154468 14.65 0.353308 14.8847 0.630325C14.9125 0.662471 14.9385 0.695853 14.9638 0.729854C15.0162 0.800987 15.0641 0.875314 15.1072 0.952402C15.1894 1.10061 15.2824 1.24256 15.3854 1.3771C15.7022 1.80373 16.1411 2.12408 16.644 2.29573C16.9921 2.40992 17.3571 2.46406 17.7234 2.45584C18.1554 2.4436 18.5771 2.58878 18.9099 2.86434C19.2428 3.13991 19.4642 3.52706 19.5328 3.95371C19.5584 4.09919 19.5575 4.24599 19.5567 4.39309C19.5559 4.53102 19.5552 4.6692 19.5761 4.80681C19.7152 5.72111 20.1813 6.40792 20.9887 6.85734C21.6538 7.22702 22.0019 7.78216 21.9963 8.54685C21.987 8.86427 21.8917 9.17321 21.7206 9.44076ZM7.07695 2.95286C6.16169 3.3831 5.32781 3.96851 4.61223 4.68317C4.3903 4.90263 4.36495 5.17958 4.56154 5.37802C4.75812 5.57646 5.019 5.56286 5.25885 5.34093C5.28976 5.31218 5.32067 5.28282 5.35157 5.25346C5.38249 5.22409 5.4134 5.19473 5.44431 5.16598C6.85378 3.87644 8.51115 3.14759 10.4164 3.04312C12.7816 2.91082 14.8352 3.678 16.5526 5.32176C16.8054 5.56162 17.0632 5.58449 17.2666 5.38358C17.4699 5.18267 17.4427 4.89459 17.1955 4.65535C15.4435 2.96955 13.3491 2.12511 10.9221 2.09667C9.59244 2.09062 8.2784 2.38321 7.07695 2.95286ZM13.7092 11.9449C13.7092 11.6369 13.7092 11.3287 13.7107 11.0196C13.7107 11.0052 13.7093 10.9904 13.7077 10.9754C13.7025 10.9231 13.697 10.8677 13.7522 10.8168C13.7985 10.8787 13.8436 10.9405 13.8863 11.0023C13.9588 11.1099 14.0314 11.2176 14.104 11.3253C14.5034 11.9182 14.9038 12.5125 15.3081 13.1041C15.4577 13.323 15.6741 13.4058 15.8874 13.3316C15.9928 13.3023 16.0853 13.2384 16.15 13.1501C16.2147 13.0619 16.2478 12.9545 16.2441 12.8451C16.2498 11.6355 16.2498 10.4255 16.2441 9.21512C16.246 9.1018 16.2041 8.99213 16.127 8.90905C16.0499 8.82597 15.9437 8.77593 15.8305 8.7694C15.7139 8.75868 15.5976 8.79309 15.5056 8.86554C15.4136 8.938 15.3529 9.04298 15.336 9.15886C15.3239 9.25045 15.3195 9.34288 15.323 9.43519V11.3899L15.2723 11.401C14.7386 10.6098 14.2038 9.81909 13.6681 9.02904C13.5154 8.80464 13.3367 8.72737 13.1197 8.79475C12.9028 8.86213 12.7853 9.02101 12.7853 9.2893C12.7812 10.4845 12.7812 11.6796 12.7853 12.8748C12.7865 13.1938 12.9751 13.3965 13.252 13.3947C13.529 13.3928 13.7076 13.1963 13.7076 12.8692C13.7092 12.5608 13.7092 12.2529 13.7092 11.9449ZM9.77164 15.7463C9.71916 15.8322 9.69415 15.932 9.69992 16.0325C9.70177 16.218 9.83146 16.3267 9.95723 16.4322L9.95833 16.4331C9.70178 16.6692 9.63996 16.8745 9.75062 17.089C9.79679 17.1786 9.87136 17.2503 9.96266 17.293C10.1246 17.3715 10.2835 17.3245 10.4393 17.2627C10.5017 17.5978 10.6513 17.7659 10.8986 17.7789C11.1459 17.7919 11.2998 17.6386 11.4135 17.2676C11.7239 17.3826 11.9328 17.3369 12.0682 17.1242C12.1801 16.9487 12.1684 16.6872 12.0008 16.5549C11.8605 16.443 11.9062 16.3966 12.0113 16.3113C12.0539 16.2724 12.0871 16.2244 12.1085 16.1709C12.1299 16.1174 12.1389 16.0597 12.135 16.0022C12.1374 15.6332 11.8172 15.4619 11.4018 15.6109C11.3245 15.2579 11.191 15.1114 10.9369 15.1028C10.6699 15.0929 10.5271 15.235 10.4263 15.6097C10.1191 15.499 9.90578 15.5417 9.77164 15.7463ZM11.4513 12.9848C11.5545 13.3125 11.7869 13.4565 12.049 13.3743L12.0521 13.3737C12.3316 13.2859 12.4404 13.0281 12.3272 12.698C11.9411 11.5395 11.5535 10.3812 11.1644 9.22315C11.0587 8.91468 10.8782 8.76878 10.626 8.77002C10.3738 8.77126 10.1926 8.92333 10.0894 9.22872C9.70199 10.3785 9.315 11.5284 8.92842 12.6782C8.90865 12.7352 8.894 12.7974 8.88373 12.841C8.88019 12.856 8.87717 12.8689 8.87464 12.8785C8.87032 13.2667 9.20723 13.4899 9.51632 13.3527C9.68818 13.2766 9.76669 13.1307 9.80687 12.9607C9.83778 12.8284 9.90578 12.7821 10.0467 12.7858C10.4238 12.7975 10.8015 12.8 11.178 12.7858C11.3412 12.7796 11.4043 12.8352 11.4513 12.9848ZM10.4306 4.89088C10.0987 4.78332 9.89404 4.83154 9.76174 5.04852L9.76298 5.0479C9.6344 5.25933 9.68818 5.45776 9.94658 5.73224C9.69251 5.9585 9.63069 6.16621 9.75433 6.39123C9.87796 6.61625 10.0863 6.66756 10.4343 6.55876C10.498 6.9 10.6439 7.05578 10.9029 7.06073C11.1725 7.06567 11.3239 6.91051 11.3938 6.55629C11.7239 6.66571 11.931 6.62367 12.0645 6.40978C12.198 6.19588 12.1368 5.96653 11.8828 5.72977C12.143 5.46704 12.1993 5.25685 12.0682 5.04481C11.9372 4.83278 11.7381 4.78579 11.3993 4.88779C11.3233 4.54964 11.1725 4.38892 10.9252 4.38273C10.6779 4.37655 10.5128 4.54346 10.4306 4.89088ZM8.40358 12.996C8.43264 12.8303 8.35722 12.7017 8.25151 12.5781C7.95416 12.2424 7.66052 11.9067 7.36626 11.5686C7.37341 11.5652 7.38025 11.5619 7.38682 11.5588C7.42574 11.5403 7.45543 11.5261 7.48557 11.5129C8.11118 11.2415 8.48333 10.6536 8.40482 10.0596C8.3158 9.38079 7.82681 8.87264 7.13506 8.78795C6.9005 8.75886 6.6616 8.76319 6.42277 8.76752C6.33681 8.76908 6.25086 8.77064 6.16512 8.77064C5.80039 8.77126 5.62297 8.93693 5.62297 9.30785C5.61967 10.4869 5.61967 11.666 5.62297 12.8451C5.62359 13.1851 5.80224 13.3935 6.0829 13.3953C6.36356 13.3972 6.54283 13.1888 6.54901 12.8507C6.55142 12.6903 6.5507 12.5317 6.5499 12.3545C6.54947 12.2585 6.54901 12.1571 6.54901 12.047C6.6312 12.1415 6.68343 12.1999 6.72805 12.2498C6.74182 12.2651 6.75487 12.2797 6.76785 12.2943C6.85326 12.3912 6.93837 12.4884 7.02348 12.5856C7.2125 12.8013 7.40151 13.0171 7.59375 13.2303C7.64954 13.3005 7.7254 13.352 7.81123 13.3779C7.89705 13.4039 7.98875 13.403 8.07409 13.3755C8.1605 13.3521 8.23798 13.3035 8.29667 13.2359C8.35535 13.1683 8.39257 13.0848 8.40358 12.996ZM2.63022 13.3966C2.96925 13.3991 3.31206 13.4016 3.65218 13.3916L3.64971 13.3904C4.27717 13.3712 4.75008 13.0782 4.99303 12.5014C5.23598 11.9246 5.13151 11.3819 4.69877 10.9226C4.6011 10.8187 4.59986 10.7569 4.65674 10.6332C4.75019 10.4338 4.79173 10.214 4.77748 9.9942C4.76324 9.77441 4.69367 9.56179 4.57526 9.37609C4.45684 9.19038 4.29341 9.03762 4.10015 8.93199C3.90689 8.82635 3.69006 8.77128 3.46981 8.77188C3.25427 8.76899 3.03873 8.76995 2.82319 8.77091C2.71542 8.77139 2.60765 8.77188 2.49988 8.77188C2.09867 8.77188 1.93609 8.92951 1.93609 9.32825V11.0592C1.93609 11.2619 1.93561 11.4647 1.93513 11.6675C1.93416 12.073 1.9332 12.4785 1.93609 12.8841C1.93856 13.2228 2.11289 13.3953 2.45166 13.3953C2.51104 13.3957 2.57057 13.3961 2.63022 13.3966ZM14.6504 19.2644C15.6134 18.8264 16.4901 18.2192 17.2387 17.4717L17.2363 17.4686C17.4465 17.2602 17.4644 16.9876 17.2789 16.7923C17.0935 16.5969 16.8258 16.6019 16.5989 16.8059C16.5623 16.8388 16.5268 16.8735 16.4914 16.9081C16.4604 16.9384 16.4295 16.9686 16.398 16.9975C13.8628 19.3676 10.0041 19.827 6.98484 18.1207C6.35539 17.7628 5.77379 17.3266 5.25391 16.8226C4.98561 16.5648 4.62892 16.6124 4.48055 16.9128C4.38102 17.1143 4.42986 17.3078 4.63881 17.5087C6.38828 19.1976 8.48456 20.0371 10.3503 20.068C12.2265 20.068 13.4492 19.8109 14.6504 19.2644ZM18.0473 13.3873C18.7595 13.3391 19.2899 12.9855 19.6058 12.3549L19.6033 12.3518C20.0249 11.5092 20.02 10.6425 19.6194 9.79992C19.3295 9.19101 18.8207 8.85595 18.1518 8.78548C17.8981 8.76836 17.6437 8.76485 17.3896 8.77497C16.9902 8.77497 16.8283 8.93199 16.8283 9.33134V11.087H16.8363C16.8363 11.2898 16.8357 11.4925 16.8351 11.6953C16.8338 12.1008 16.8326 12.5064 16.8363 12.9119C16.8388 13.2105 17.018 13.3897 17.3086 13.3959C17.5528 13.4015 17.8001 13.404 18.0473 13.3873ZM18.8263 11.8498C19.0325 11.3697 19.0416 10.8277 18.8516 10.3408C18.702 9.93716 18.3991 9.71523 17.9546 9.69112C17.8019 9.68308 17.7383 9.71276 17.7444 9.88585C17.7541 10.1692 17.7522 10.455 17.7503 10.7406C17.7495 10.8564 17.7488 10.9721 17.7488 11.0876H17.7531C17.7531 11.2236 17.7539 11.3596 17.7546 11.4956C17.7561 11.7676 17.7576 12.0396 17.7531 12.3116C17.7512 12.4334 17.7865 12.468 17.9101 12.468C18.3231 12.468 18.6526 12.2603 18.8263 11.8498Z" fill="#EB6309"/>
</svg>
