<svg width="20" height="17" viewBox="0 0 20 17" fill="none" xmlns="http://www.w3.org/2000/svg">
<path d="M14.4999 0.143189C13.581 0.143039 12.6788 0.389253 11.8874 0.856188C11.096 1.32312 10.4443 1.9937 10 2.79809C9.55582 1.9937 8.90406 1.32312 8.11265 0.856188C7.32123 0.389253 6.4191 0.143039 5.50021 0.143189C4.13629 0.143189 2.82823 0.685003 1.8638 1.64944C0.899359 2.61388 0.357544 3.92193 0.357544 5.28585C0.357544 12.357 8.62245 16.8568 10 16.8568C11.3776 16.8568 19.6425 12.357 19.6425 5.28585C19.6425 3.92193 19.1007 2.61388 18.1363 1.64944C17.1718 0.685003 15.8638 0.143189 14.4999 0.143189ZM5.50021 2.71452C4.08212 2.71452 2.92888 3.86776 2.92888 5.28585C2.92888 5.45634 2.86115 5.61985 2.74059 5.7404C2.62004 5.86096 2.45653 5.92869 2.28604 5.92869C2.11555 5.92869 1.95205 5.86096 1.83149 5.7404C1.71094 5.61985 1.64321 5.45634 1.64321 5.28585C1.64321 3.15872 3.37307 1.42885 5.50021 1.42885C5.6707 1.42885 5.8342 1.49658 5.95476 1.61714C6.07531 1.73769 6.14304 1.9012 6.14304 2.07169C6.14304 2.24218 6.07531 2.40568 5.95476 2.52624C5.8342 2.64679 5.6707 2.71452 5.50021 2.71452Z" fill="#EB6309"/>
</svg>
