<svg width="20" height="22" viewBox="0 0 20 22" fill="none" xmlns="http://www.w3.org/2000/svg">
<path d="M18.9917 13.2349L17.7507 11.1702C17.4761 10.72 17.2345 9.85236 17.2345 9.3252V7.27148C17.2345 3.28486 13.9947 0.0450439 10.0191 0.0450439C6.03243 0.0560264 2.79261 3.28486 2.79261 7.27148V9.31422C2.79261 9.84137 2.551 10.709 2.28742 11.1593L1.0464 13.224C0.57416 14.0257 0.464336 14.9372 0.760862 15.728C1.05739 16.5297 1.72732 17.1667 2.60591 17.4522C3.79201 17.8476 4.9891 18.1331 6.20815 18.3418C6.32896 18.3637 6.44976 18.3747 6.57057 18.3967L7.05379 18.4626C7.33934 18.5065 7.62488 18.5395 7.92141 18.5614C9.30578 18.692 10.6994 18.692 12.0837 18.5614C12.3363 18.5395 12.5889 18.5175 12.8306 18.4845C13.0282 18.4626 13.2259 18.4406 13.4236 18.4077C13.5444 18.3967 13.6652 18.3747 13.786 18.3528C15.0161 18.1551 16.2351 17.8476 17.4212 17.4522C17.8315 17.315 18.2061 17.0881 18.5177 16.7879C18.8292 16.4878 19.07 16.1219 19.2223 15.717C19.5298 14.8933 19.442 13.9927 18.9917 13.2349Z" fill="#EB6309"/>
<path d="M13.1051 19.7695C12.8741 20.4089 12.4519 20.9616 11.8959 21.3526C11.3398 21.7436 10.6768 21.954 9.99707 21.955C9.12946 21.955 8.27283 21.6036 7.66879 20.9776C7.31736 20.6481 7.05378 20.2088 6.90002 19.7585C7.0428 19.7805 7.18557 19.7915 7.33932 19.8135C7.59192 19.8464 7.8555 19.8794 8.11907 19.9013C8.74507 19.9562 9.38205 19.9892 10.019 19.9892C10.645 19.9892 11.271 19.9562 11.886 19.9013C12.1167 19.8794 12.3473 19.8684 12.567 19.8354L13.1051 19.7695Z" fill="#EB6309"/>
</svg>
