<svg width="24" height="13" viewBox="0 0 24 13" fill="none" xmlns="http://www.w3.org/2000/svg">
<path d="M14.5814 0.617909C14.5362 0.353487 14.3071 0.160034 14.0386 0.160034H1.66078C1.30406 0.160034 1.01522 0.449206 1.01522 0.805268C1.01522 1.16199 1.30406 1.45083 1.66078 1.45083H4.67311C5.02983 1.45083 5.31867 1.74005 5.31867 2.09644C5.31867 2.45283 5.02983 2.742 4.67311 2.742H0.645563C0.289172 2.742 0 3.03117 0 3.38757C0 3.74396 0.289172 4.03275 0.645563 4.03275H6.13528C6.45028 4.03275 6.70584 4.28869 6.70584 4.60369C6.70584 4.91869 6.45028 5.17425 6.13528 5.17425H3.21867C2.86195 5.17425 2.57311 5.46347 2.57311 5.81986C2.57311 6.17621 2.86195 6.46542 3.21867 6.46542H5.36822C5.6835 6.46542 5.93911 6.72099 5.93911 7.03599C5.93911 7.35094 5.6835 7.60655 5.36822 7.60655H2.4007C2.04398 7.60655 1.75514 7.89572 1.75514 8.25211C1.75514 8.6085 2.04398 8.89767 2.4007 8.89767H6.47948L6.73673 10.3528H8.21423C8.12733 10.5639 8.07778 10.7944 8.07778 11.037C8.07778 12.0329 8.88487 12.84 9.88078 12.84C10.8763 12.84 11.6834 12.0329 11.6834 11.037C11.6834 10.7944 11.6339 10.5639 11.547 10.3528H16.2363L14.5814 0.617909ZM10.6567 11.037C10.6567 11.4657 10.3095 11.8129 9.88073 11.8129C9.45173 11.8129 9.10448 11.4657 9.10448 11.037C9.10448 10.7387 9.2745 10.4828 9.5213 10.3527H10.2398C10.4866 10.4828 10.6567 10.7386 10.6567 11.037Z" fill="#EB6309"/>
<path d="M23.9812 9.22214L23.2406 5.56866L20.5364 1.40808H15.6129L17.1379 10.3527H18.9388C18.8523 10.5638 18.8027 10.7943 18.8027 11.037C18.8027 12.0329 19.6098 12.84 20.6053 12.84C21.6012 12.84 22.4083 12.0329 22.4083 11.037C22.4083 10.7943 22.3588 10.5638 22.2719 10.3527H23.0567C23.3397 10.3527 23.6079 10.2258 23.7871 10.0065C23.9659 9.78764 24.0375 9.49946 23.9812 9.22214ZM18.3998 3.07261H19.6333L21.2346 5.53575H18.82L18.3998 3.07261ZM21.3816 11.037C21.3816 11.4657 21.0344 11.8129 20.6053 11.8129C20.177 11.8129 19.8294 11.4657 19.8294 11.037C19.8294 10.7387 19.9998 10.4828 20.2463 10.3527H20.9648C21.2116 10.4828 21.3816 10.7386 21.3816 11.037Z" fill="#EB6309"/>
</svg>
