<svg width="16" height="22" viewBox="0 0 16 22" fill="none" xmlns="http://www.w3.org/2000/svg">
<path d="M7.99817 10.0007C10.7596 10.0007 12.9982 7.76216 12.9982 5.00073C12.9982 2.23931 10.7596 0.000732422 7.99817 0.000732422C5.23675 0.000732422 2.99817 2.23931 2.99817 5.00073C2.99817 7.76216 5.23675 10.0007 7.99817 10.0007Z" fill="#EB6309"/>
<path d="M15.1542 14.0748C14.8462 13.6127 14.4454 13.2198 13.9773 12.9211C13.5092 12.6224 12.984 12.4244 12.4352 12.3398C9.49303 11.8887 6.49932 11.8887 3.55717 12.3398C3.00886 12.424 2.48413 12.6216 2.01648 12.92C1.54883 13.2184 1.14854 13.611 0.841175 14.0728C0.214175 15.0158 0.0111746 16.1888 0.307175 17.3648C0.592882 18.5099 1.21397 19.5437 2.09086 20.3336C2.96776 21.1236 4.06053 21.6338 5.22917 21.7988C7.03134 22.061 8.86159 22.066 10.6652 21.8138C11.8635 21.649 12.9847 21.1283 13.8836 20.319C14.7826 19.5098 15.4179 18.4492 15.7072 17.2748C15.8424 16.7322 15.863 16.1675 15.7678 15.6165C15.6726 15.0656 15.4636 14.5405 15.1542 14.0748Z" fill="#EB6309"/>
</svg>
