<svg width="138" height="27" viewBox="0 0 138 27" fill="none" xmlns="http://www.w3.org/2000/svg">
<path d="M7.35823 12.5605C7.35823 12.9648 7.25041 13.3422 7.06174 13.7195C6.87307 14.0699 6.57659 14.3664 6.14534 14.5821C5.74104 14.7977 5.22893 14.9055 4.58205 14.9055H3.31526V17.8435H1.77893V10.2155H4.58205C5.17502 10.2155 5.68713 10.3234 6.09143 10.512C6.49573 10.7277 6.81916 10.9972 7.00784 11.3476C7.25041 11.725 7.35823 12.1293 7.35823 12.5605ZM4.52815 13.6656C4.9594 13.6656 5.25588 13.5578 5.47151 13.3691C5.68713 13.1805 5.76799 12.9109 5.76799 12.5605C5.76799 11.8058 5.3637 11.4554 4.52815 11.4554H3.31526V13.6656H4.52815ZM11.1317 17.9513C10.5387 17.9513 10.0266 17.8165 9.56838 17.5739C9.11018 17.3044 8.73284 16.954 8.4633 16.4688C8.19377 15.9836 8.05901 15.4446 8.05901 14.8246C8.05901 14.2047 8.19377 13.6656 8.4633 13.1805C8.73284 12.6953 9.11018 12.3449 9.59533 12.0753C10.0805 11.8058 10.5926 11.671 11.1856 11.671C11.7785 11.671 12.2906 11.8058 12.7758 12.0753C13.261 12.3179 13.6114 12.6953 13.8809 13.1805C14.1504 13.6656 14.2852 14.2047 14.2852 14.8246C14.2852 15.4446 14.1504 15.9836 13.8539 16.4688C13.5844 16.954 13.2071 17.3044 12.7219 17.5739C12.2637 17.8165 11.7246 17.9513 11.1317 17.9513ZM11.1317 16.6036C11.4012 16.6036 11.6707 16.5497 11.9133 16.4149C12.1559 16.2801 12.3715 16.0645 12.5063 15.795C12.641 15.5254 12.7219 15.202 12.7219 14.7977C12.7219 14.2317 12.5602 13.7734 12.2637 13.4769C11.9672 13.1535 11.5899 13.0187 11.1586 13.0187C10.7274 13.0187 10.35 13.1805 10.0535 13.4769C9.75705 13.7734 9.62229 14.2317 9.62229 14.7977C9.62229 15.3637 9.75705 15.8219 10.0535 16.1454C10.3231 16.4688 10.7004 16.6036 11.1317 16.6036ZM23.8266 11.7789L22.0477 17.8435H20.4035L19.2985 13.6117L18.1934 17.8435H16.5223L14.7434 11.7789H16.3067L17.3848 16.388L18.5438 11.7789H20.161L21.293 16.388L22.3711 11.7789H23.8266ZM30.2953 14.6899C30.2953 14.9055 30.2684 15.0942 30.2414 15.2829H25.8211C25.8481 15.7141 26.0098 16.0645 26.2793 16.3071C26.5488 16.5497 26.8723 16.6844 27.2766 16.6844C27.8426 16.6844 28.2469 16.4419 28.4895 15.9567H30.1336C29.9719 16.5497 29.6215 17.0348 29.1363 17.4122C28.6512 17.7896 28.0313 17.9782 27.3035 17.9782C26.7106 17.9782 26.1985 17.8435 25.7403 17.6009C25.2821 17.3313 24.9317 16.9809 24.6621 16.4958C24.3926 15.9836 24.2578 15.4446 24.2578 14.8246C24.2578 14.2047 24.3926 13.6387 24.6352 13.1805C24.8778 12.6953 25.2551 12.3449 25.7133 12.0753C26.1715 11.8328 26.7106 11.698 27.3035 11.698C27.8696 11.698 28.3817 11.8328 28.8399 12.0753C29.2981 12.3179 29.6485 12.6683 29.891 13.1265C30.1606 13.5848 30.2953 14.0969 30.2953 14.6899ZM28.7051 14.2586C28.7051 13.8543 28.5434 13.5578 28.2738 13.3152C28.0043 13.0726 27.6539 12.9648 27.2496 12.9648C26.8723 12.9648 26.5488 13.0726 26.2793 13.3152C26.0367 13.5309 25.875 13.8543 25.8211 14.2586H28.7051ZM32.9367 12.7222C33.1254 12.3988 33.3949 12.1562 33.6914 11.9675C34.0149 11.7789 34.3653 11.698 34.7965 11.698V13.3152H34.3922C33.907 13.3152 33.5567 13.423 33.2871 13.6656C33.0445 13.8813 32.9367 14.2856 32.9367 14.8516V17.8704H31.4004V11.7789H32.9367V12.7222ZM35.4164 14.7977C35.4164 14.1777 35.5242 13.6387 35.7668 13.1805C36.0094 12.6953 36.3598 12.3449 36.7641 12.0753C37.1953 11.8328 37.6535 11.698 38.1656 11.698C38.5699 11.698 38.9473 11.7789 39.2977 11.9675C39.6481 12.1293 39.9445 12.3718 40.1602 12.6414V9.75732H41.7235V17.8435H40.1602V16.954C39.9715 17.2505 39.702 17.4931 39.3516 17.6817C39.0012 17.8704 38.6238 17.9513 38.1656 17.9513C37.6535 17.9513 37.1953 17.8165 36.7641 17.547C36.3328 17.2774 36.0094 16.927 35.7668 16.4419C35.5512 15.9567 35.4164 15.4176 35.4164 14.7977ZM40.1871 14.8246C40.1871 14.4473 40.1063 14.1238 39.9715 13.8813C39.8367 13.6117 39.6211 13.3961 39.3785 13.2613C39.136 13.1265 38.8664 13.0457 38.5699 13.0457C38.2735 13.0457 38.0309 13.1265 37.7883 13.2613C37.5457 13.3961 37.357 13.6117 37.1953 13.8813C37.0606 14.1508 36.9797 14.4473 36.9797 14.8246C36.9797 15.202 37.0606 15.4985 37.1953 15.795C37.357 16.0645 37.5457 16.2801 37.7883 16.4149C38.0309 16.5497 38.3004 16.6305 38.5699 16.6305C38.8664 16.6305 39.109 16.5497 39.3785 16.4149C39.6211 16.2801 39.8367 16.0645 39.9715 15.795C40.1332 15.4985 40.1871 15.175 40.1871 14.8246ZM50.1867 13.9352C50.618 14.016 50.9684 14.2317 51.2379 14.5821C51.5074 14.9325 51.6422 15.3368 51.6422 15.795C51.6422 16.1993 51.5344 16.5766 51.3457 16.8731C51.157 17.1696 50.8606 17.4122 50.4832 17.6009C50.1059 17.7626 49.6477 17.8704 49.1356 17.8704H45.8473V10.2155H49.0008C49.5129 10.2155 49.9711 10.2964 50.3484 10.4581C50.7258 10.6198 51.0223 10.8624 51.2109 11.1589C51.3996 11.4554 51.5074 11.8058 51.5074 12.1832C51.5074 12.6414 51.3996 12.9918 51.157 13.2883C50.8875 13.5848 50.5641 13.8004 50.1867 13.9352ZM47.3836 13.3691H48.7852C49.1625 13.3691 49.432 13.2883 49.6207 13.1265C49.8094 12.9648 49.9172 12.7222 49.9172 12.4257C49.9172 12.1293 49.8094 11.8867 49.6207 11.725C49.432 11.5632 49.1356 11.4824 48.7852 11.4824H47.3836V13.3691ZM48.9199 16.6036C49.2973 16.6036 49.5668 16.5227 49.7824 16.334C49.9981 16.1723 50.1059 15.9028 50.1059 15.5793C50.1059 15.2559 49.9981 14.9864 49.7824 14.8246C49.5668 14.636 49.2703 14.5281 48.893 14.5281H47.3836V16.5766H48.9199V16.6036ZM58.677 11.7789L54.9305 20.7006H53.3133L54.634 17.6817L52.2082 11.7789H53.9332L55.4965 16.0106L57.0867 11.7789H58.677Z" fill="#030304"/>
<path d="M65.3074 12.9648H65.3883C66.1969 12.9648 66.6012 12.4526 66.6012 11.7249C66.6012 11.1589 66.5742 10.5928 66.5203 10.0538C66.4934 9.48773 66.4395 8.9217 66.4395 8.30177C66.4664 6.60368 67.0324 5.95679 68.5149 5.95679H68.8383C68.9192 5.95679 68.9731 6.01069 68.9731 6.09156V6.71149C68.9731 6.79235 68.9192 6.84626 68.8383 6.84626H68.5688C67.841 6.84626 67.5176 7.08885 67.5176 8.32872C67.5176 8.84084 67.5446 9.32601 67.5715 9.81118C67.5985 10.3503 67.6254 10.8893 67.6254 11.5093C67.6254 12.1831 67.5446 12.8839 67.0055 13.2613C67.5446 13.6386 67.6254 14.3933 67.6254 15.0133C67.6254 15.6332 67.5985 16.1723 67.5715 16.7113C67.5446 17.2235 67.5176 17.6817 67.5176 18.1938C67.5176 19.4606 67.868 19.6763 68.5688 19.6763H68.8383C68.9192 19.6763 68.9731 19.7302 68.9731 19.811V20.4849C68.9731 20.5657 68.9192 20.6196 68.8383 20.6196H68.5149C67.0324 20.6196 66.4664 19.9458 66.4664 18.2747C66.4664 17.6547 66.4934 17.0617 66.5473 16.4957C66.5742 15.9566 66.6281 15.4176 66.6281 14.8515C66.6281 14.0699 66.2508 13.5847 65.4153 13.5847H65.3344C65.2535 13.5847 65.1996 13.5308 65.1996 13.4499V13.0726C65.1727 13.0187 65.2535 12.9648 65.3074 12.9648Z" fill="#030304"/>
<path d="M136.383 12.9648H136.302C135.493 12.9648 135.089 12.4526 135.089 11.7249C135.089 11.1589 135.116 10.5928 135.17 10.0538C135.197 9.48773 135.251 8.9217 135.251 8.30177C135.251 6.63063 134.685 5.95679 133.202 5.95679H132.879C132.798 5.95679 132.744 6.01069 132.744 6.09156V6.71149C132.744 6.79235 132.798 6.84626 132.879 6.84626H133.148C133.876 6.84626 134.2 7.08885 134.2 8.32872C134.2 8.84084 134.173 9.32601 134.146 9.81118C134.119 10.3503 134.092 10.8893 134.092 11.5093C134.092 12.1831 134.173 12.8839 134.712 13.2613C134.173 13.6386 134.092 14.3933 134.092 15.0133C134.092 15.6332 134.119 16.1723 134.146 16.7113C134.173 17.2235 134.2 17.6817 134.2 18.1938C134.2 19.4606 133.849 19.6763 133.148 19.6763H132.879C132.798 19.6763 132.744 19.7302 132.744 19.811V20.431C132.744 20.5118 132.798 20.5657 132.879 20.5657H133.202C134.685 20.5657 135.251 19.8919 135.251 18.2208C135.251 17.6008 135.224 17.0078 135.17 16.4418C135.143 15.9027 135.089 15.3637 135.089 14.7976C135.089 14.016 135.466 13.5308 136.302 13.5308H136.383C136.464 13.5308 136.518 13.4769 136.518 13.396V13.0187C136.518 13.0187 136.464 12.9648 136.383 12.9648Z" fill="#030304"/>
<path d="M77.7597 11.5363C77.7597 12.4797 77.3015 13.1805 76.4121 13.6117C77.032 13.7735 77.4902 14.0969 77.7867 14.5551C78.0832 15.0133 78.2449 15.5254 78.2449 16.1454C78.2449 16.6036 78.164 16.981 78.0023 17.3583C77.8406 17.7087 77.598 18.0322 77.3015 18.2747C77.005 18.5173 76.6277 18.706 76.1965 18.8408C75.7652 18.9755 75.2801 19.0294 74.7679 19.0294H69.9164V9.0835H74.6062C76.7086 9.0835 77.7597 9.89211 77.7597 11.5363ZM75.6574 11.9136C75.6574 11.1589 75.1722 10.7546 74.175 10.7546H72.0996V13.0727H74.3367C75.1992 13.0996 75.6574 12.7223 75.6574 11.9136ZM76.0617 16.0106C76.0617 15.0672 75.5496 14.5821 74.4984 14.5821H72.1265V17.3044H74.4715C75.5226 17.3314 76.0617 16.9001 76.0617 16.0106Z" fill="#FDCF00"/>
<path d="M81.3984 13.1536H81.4254C81.6141 12.6684 81.9375 12.318 82.3418 12.0215C82.7461 11.752 83.2043 11.6172 83.7164 11.6172C83.8512 11.6172 84.0129 11.6441 84.1477 11.698V13.5309C83.9051 13.477 83.6625 13.45 83.4469 13.45C82.1531 13.45 81.5062 14.2317 81.5062 15.7681V19.0025H79.5117V11.8328H81.3984V13.1536Z" fill="#FDCF00"/>
<path d="M85.0641 18.4634C84.6059 18.086 84.3903 17.5469 84.3903 16.8731C84.3903 16.5496 84.4442 16.2531 84.525 15.9836C84.6328 15.7141 84.7946 15.4984 85.0102 15.3098C85.2528 15.1211 85.5492 14.9863 85.9266 14.8515C86.3039 14.7437 86.7621 14.6629 87.3281 14.582C87.7324 14.5281 88.0559 14.5012 88.2985 14.4472C88.568 14.3933 88.7297 14.3394 88.8375 14.2586C89.0532 14.1238 89.161 13.9351 89.161 13.6925C89.161 13.3691 89.0532 13.1265 88.8645 12.9648C88.6758 12.8031 88.3524 12.7222 87.8942 12.7222C87.4899 12.7222 87.1664 12.8031 86.9508 12.9648C86.7352 13.1265 86.6004 13.423 86.5735 13.8004H84.6328C84.6867 13.0187 85.0102 12.3988 85.6031 11.9944C86.1961 11.5901 87.0047 11.3745 88.0289 11.3745C90.1313 11.4015 91.1824 12.0753 91.1824 13.423V17.2504C91.1824 17.9512 91.2633 18.4634 91.425 18.7868H89.4035C89.3496 18.679 89.3227 18.5442 89.3227 18.4364C89.2957 18.3286 89.2688 18.1938 89.2688 18.086C88.6758 18.679 87.8672 18.9755 86.843 18.9755C86.1153 19.0294 85.5223 18.8407 85.0641 18.4634ZM86.6004 17.3043C86.7352 17.4391 86.9239 17.5469 87.1125 17.6278C87.3282 17.7087 87.5438 17.7356 87.7864 17.7087C88.0289 17.6817 88.2446 17.6278 88.4602 17.493C88.6758 17.3852 88.8375 17.1965 88.9723 16.9539C89.1071 16.7114 89.1879 16.4149 89.1879 16.0645V15.3098C89.0262 15.4715 88.6219 15.6063 88.002 15.6602C87.436 15.741 87.0317 15.8219 86.7891 16.0106C86.5196 16.1723 86.4117 16.4418 86.4117 16.7922C86.3848 16.9809 86.4656 17.1696 86.6004 17.3043Z" fill="#FDCF00"/>
<path d="M94.7402 19.0295H92.7456V11.8328H94.7402V19.0295ZM95.1175 9.38001C95.1175 10.1347 94.5245 10.7547 93.7429 10.7547C92.9882 10.7547 92.3683 10.1617 92.3683 9.38001C92.3683 8.62531 92.9612 8.00537 93.7429 8.00537C94.4976 8.00537 95.1175 8.62531 95.1175 9.38001Z" fill="#FDCF00"/>
<path d="M98.1903 12.83H98.2442C98.7294 12.0214 99.4841 11.644 100.454 11.644C101.371 11.644 102.045 11.8866 102.449 12.3448C102.853 12.8031 103.069 13.5578 103.069 14.5551V19.0294H101.074V14.9324C101.074 14.3394 100.993 13.9082 100.805 13.6117C100.616 13.3152 100.293 13.1804 99.8075 13.1804C99.2684 13.1804 98.8641 13.3421 98.6485 13.6656C98.4059 13.989 98.2981 14.5281 98.2981 15.2828V19.0294H96.3036V11.8327H98.1903V12.83Z" fill="#FDCF00"/>
<path d="M109.025 8.6521H111.047V18.8137H109.025V16.28L108.244 15.5253L106.222 18.8137H103.77L106.869 14.1507L104.12 11.4553H106.519L109.052 14.0968V8.6521H109.025Z" fill="#030304"/>
<path d="M113.526 18.5713C112.96 18.2748 112.502 17.8435 112.152 17.2236C111.801 16.6306 111.64 15.9298 111.64 15.1212C111.64 14.7438 111.694 14.3934 111.775 14.043C111.855 13.6926 111.99 13.3692 112.152 13.0727C112.314 12.7762 112.529 12.5067 112.745 12.2641C112.987 12.0215 113.257 11.8328 113.526 11.6711C114.093 11.3746 114.712 11.2129 115.386 11.2129C116.087 11.2129 116.68 11.3746 117.246 11.6981C117.785 12.0215 118.216 12.4797 118.513 13.0997C118.809 13.6926 118.971 14.3934 118.971 15.229V15.3638C118.971 15.4177 118.971 15.4985 118.944 15.5794H113.634C113.661 16.1724 113.796 16.6306 114.092 16.954C114.389 17.2775 114.82 17.4392 115.44 17.4392C115.817 17.4392 116.141 17.3584 116.464 17.1697C116.761 16.981 116.976 16.7654 117.057 16.4958H118.836C118.297 18.167 117.165 18.9756 115.386 18.9756C114.739 19.0295 114.119 18.8947 113.526 18.5713ZM116.437 13.1536C116.195 12.911 115.817 12.7762 115.332 12.7762C114.847 12.7762 114.47 12.911 114.173 13.1805C113.877 13.4501 113.715 13.8544 113.661 14.3395H116.976C116.869 13.8005 116.707 13.3961 116.437 13.1536Z" fill="#030304"/>
<path d="M121.424 18.5174C121.046 18.2478 120.858 17.7896 120.858 17.1427V12.8301H119.645V11.4824H120.858V9.27222H122.879V11.4824H124.362V12.8301H122.879V16.4689C122.879 16.8193 122.933 17.0349 123.041 17.1697C123.149 17.2775 123.391 17.3314 123.742 17.3314C124.011 17.3314 124.227 17.3044 124.362 17.2775V18.8678C124.227 18.8947 124.038 18.8947 123.85 18.9217C123.661 18.9486 123.418 18.9486 123.149 18.9486C122.367 18.9217 121.801 18.7599 121.424 18.5174Z" fill="#030304"/>
<path d="M125.898 18.3285C125.305 17.8703 124.982 17.2504 124.982 16.4418H126.895C126.895 16.8191 127.03 17.1156 127.326 17.3582C127.623 17.6008 128 17.6816 128.459 17.6816C128.836 17.6816 129.159 17.6008 129.402 17.4391C129.671 17.2773 129.779 17.0348 129.779 16.7383C129.779 16.5496 129.698 16.3879 129.537 16.2531C129.375 16.1183 129.159 16.0105 128.89 15.9297C128.755 15.8757 128.566 15.8218 128.351 15.7679C128.135 15.714 127.866 15.6601 127.569 15.6062C127.084 15.4984 126.653 15.3636 126.302 15.2289C125.952 15.0671 125.655 14.8515 125.467 14.6089C125.278 14.3394 125.17 14.0429 125.17 13.6655C125.17 13.1804 125.278 12.7491 125.521 12.3987C125.763 12.0483 126.114 11.7788 126.599 11.5901C127.057 11.4014 127.65 11.3206 128.378 11.3206C129.375 11.3206 130.13 11.5092 130.696 11.9135C131.235 12.3178 131.558 12.8839 131.612 13.6655H129.644C129.617 13.3151 129.483 13.0726 129.267 12.9108C129.025 12.7491 128.701 12.6682 128.27 12.6682C127.515 12.6682 127.138 12.9108 127.138 13.369C127.138 13.5308 127.192 13.6925 127.326 13.8003C127.461 13.9081 127.65 14.0159 127.892 14.0968C128.135 14.1777 128.405 14.2585 128.701 14.3124C129.617 14.5011 130.264 14.6628 130.642 14.8785C131.019 15.0671 131.289 15.2828 131.477 15.5523C131.639 15.8218 131.747 16.1453 131.747 16.5496C131.747 17.3852 131.45 18.0051 130.83 18.4633C130.237 18.8946 129.402 19.1372 128.378 19.1372C127.326 19.0293 126.491 18.7868 125.898 18.3285Z" fill="#030304"/>
</svg>
