<svg width="22" height="24" viewBox="0 0 22 24" fill="none" xmlns="http://www.w3.org/2000/svg">
<path d="M12.0724 0.0612793H0.639526V20.5174H11.1615V18.8144H2.34258V1.76434H10.8676V6.87935H15.9826V13.4035L16.3544 13.7792C16.6461 13.748 16.9404 13.748 17.2322 13.7792L17.6876 13.3218V5.67456L12.0724 0.0612793Z" fill="#EB6309"/>
<path d="M4.04767 5.17432H9.16268V6.87932H4.04767V5.17432Z" fill="#EB6309"/>
<path d="M4.04767 9.43677H14.2777V11.1418H4.04767V9.43677Z" fill="#EB6309"/>
<path d="M4.04767 13.6995H11.8584V15.4045H4.04767V13.6995Z" fill="#EB6309"/>
<path d="M21.3507 16.5333H19.7508C19.4936 16.088 19.1389 15.7067 18.7134 15.418L19.6418 14.4877L18.8379 13.6858L17.602 14.9217C17.3368 14.8577 17.0651 14.825 16.7923 14.8244C16.5214 14.8248 16.2516 14.8574 15.9885 14.9217L14.7467 13.6858L13.9409 14.4877L14.8654 15.418C14.4425 15.708 14.09 16.0891 13.8338 16.5333H12.2339V17.6719H13.4251C13.3935 17.8604 13.3766 18.0511 13.3745 18.2422V18.8105H12.2339V19.9511H13.3745V20.5214C13.3767 20.7125 13.3936 20.9031 13.4251 21.0917H12.2339V22.2303H13.8358C14.1353 22.7497 14.5663 23.1811 15.0855 23.481C15.6047 23.781 16.1937 23.9389 16.7933 23.9389C17.3929 23.9389 17.9819 23.781 18.5011 23.481C19.0202 23.1811 19.4513 22.7497 19.7508 22.2303H21.3507V21.0917H20.1692C20.2014 20.9032 20.2189 20.7125 20.2218 20.5214V19.9511H21.3604V18.8105H20.2218V18.2422C20.219 18.051 20.2015 17.8604 20.1692 17.6719H21.3604L21.3507 16.5333ZM17.9329 21.0936H15.6537V19.953H17.9329V21.0936ZM17.9329 18.8125H15.6537V17.6719H17.9329V18.8125Z" fill="#EB6309"/>
</svg>
