<svg width="24" height="22" viewBox="0 0 24 22" fill="none" xmlns="http://www.w3.org/2000/svg">
<path d="M20.425 12.7439H20.3268C19.5408 12.6457 18.9021 12.4492 18.3126 12.0071C18.2635 11.9579 18.2635 11.9579 18.2144 11.9579C17.9196 11.7123 17.674 11.8597 17.5266 11.9088L17.4775 11.9579C16.7406 12.4983 15.9055 12.7931 14.9229 12.7931C13.8913 12.7931 13.0562 12.4983 12.2701 11.9088C11.9754 11.7123 11.7789 11.9088 11.7789 11.9088C10.9929 12.5474 10.1086 12.8422 9.07697 12.8422C8.09445 12.8422 7.21019 12.5474 6.4733 11.9579C6.42417 11.9088 6.37505 11.9088 6.37505 11.8597C6.12942 11.6632 5.88379 11.8597 5.88379 11.8597C5.1469 12.4492 4.31176 12.7439 3.37837 12.7931C3.37837 12.7931 3.08362 12.7931 3.08362 13.1369V20.4567C3.08362 20.6041 3.18187 20.9479 3.624 21.0462H12.7123C13.2035 20.9479 13.2527 20.6041 13.2527 20.4567V19.032V15.2494C13.3018 15.102 13.3509 14.9546 13.7439 14.9546H18.1161C18.2635 15.0037 18.4109 15.102 18.4109 15.4459V20.3584C18.4109 20.8988 18.8039 20.9971 18.9021 20.9971H20.2776C20.3759 20.9971 20.7689 20.8988 20.7689 20.3584V13.2843C20.818 12.8913 20.6215 12.7931 20.425 12.7439ZM10.649 18.3934V18.5408C10.649 18.7373 10.5507 19.032 10.0595 19.032H6.08029C5.63816 19.032 5.53991 18.8355 5.49078 18.639V18.4425V15.6424C5.49078 14.9546 5.88379 14.9055 6.03117 14.9055H10.2069C10.3542 14.9055 10.6981 15.0037 10.6981 15.5441C10.649 16.5266 10.649 17.46 10.649 18.3934Z" fill="#EB6309"/>
<path d="M20.0321 10.7789C21.1128 11.0736 22.0462 10.8771 22.8322 10.0911C23.3235 9.59988 23.6674 9.01037 23.7656 8.37173V8.27348C23.6674 8.02785 23.5691 7.78222 23.4709 7.58572C22.2919 5.47331 21.162 3.3609 20.0321 1.24849C19.8847 0.953735 19.5408 0.953735 19.4426 0.953735H4.45919C4.45919 0.953735 4.01706 0.953735 3.86968 1.24849C2.69066 3.3609 1.56077 5.52243 0.430878 7.58572C0.332627 7.78222 0.234375 8.07698 0.234375 8.37173V8.46998C0.332627 9.15774 0.627381 9.74725 1.11864 10.1894C2.0029 10.9754 2.98542 11.1719 4.16444 10.7789C4.80307 10.5333 5.24521 10.1403 5.63821 9.55075L5.78559 9.40337C6.03122 9.25599 6.32597 9.30512 6.52248 9.55075C6.71898 9.8455 6.96461 10.1403 7.25936 10.3368C8.0945 10.9754 9.02789 11.0736 10.0104 10.7789C10.649 10.5824 11.1403 10.1403 11.4842 9.55075C11.6807 9.25599 12.1719 9.20687 12.3684 9.55075C12.4667 9.649 12.5158 9.79638 12.6141 9.89463C13.1053 10.4841 13.744 10.828 14.4809 10.9263C15.1686 11.0245 15.8564 10.828 16.495 10.435C16.8389 10.1894 17.1336 9.89463 17.3302 9.55075C17.5758 9.25599 18.0179 9.25599 18.2144 9.55075C18.6074 10.1894 19.0987 10.5824 19.8356 10.7789H20.0321Z" fill="#EB6309"/>
</svg>
