<svg width="22" height="22" viewBox="0 0 22 22" fill="none" xmlns="http://www.w3.org/2000/svg">
<path d="M21.5 0H4.5C4.36739 0 4.24021 0.0526784 4.14645 0.146447C4.05268 0.240215 4 0.367392 4 0.5V19.5C4 19.8978 3.84196 20.2794 3.56066 20.5607C3.27936 20.842 2.89782 21 2.5 21C2.10218 21 1.72064 20.842 1.43934 20.5607C1.15804 20.2794 1 19.8978 1 19.5V12H2.5C2.63261 12 2.75979 11.9473 2.85355 11.8536C2.94732 11.7598 3 11.6326 3 11.5C3 11.3674 2.94732 11.2402 2.85355 11.1464C2.75979 11.0527 2.63261 11 2.5 11H0.5C0.367392 11 0.240215 11.0527 0.146447 11.1464C0.0526784 11.2402 0 11.3674 0 11.5V19.5C0.000793929 20.1628 0.264441 20.7982 0.73311 21.2669C1.20178 21.7356 1.8372 21.9992 2.5 22H19.5C20.1628 21.9992 20.7982 21.7356 21.2669 21.2669C21.7356 20.7982 21.9992 20.1628 22 19.5V0.5C22 0.367392 21.9473 0.240215 21.8536 0.146447C21.7598 0.0526784 21.6326 0 21.5 0ZM18 17H8C7.86739 17 7.74021 16.9473 7.64645 16.8536C7.55268 16.7598 7.5 16.6326 7.5 16.5C7.5 16.3674 7.55268 16.2402 7.64645 16.1464C7.74021 16.0527 7.86739 16 8 16H18C18.1326 16 18.2598 16.0527 18.3536 16.1464C18.4473 16.2402 18.5 16.3674 18.5 16.5C18.5 16.6326 18.4473 16.7598 18.3536 16.8536C18.2598 16.9473 18.1326 17 18 17ZM18 13H8C7.86739 13 7.74021 12.9473 7.64645 12.8536C7.55268 12.7598 7.5 12.6326 7.5 12.5C7.5 12.3674 7.55268 12.2402 7.64645 12.1464C7.74021 12.0527 7.86739 12 8 12H18C18.1326 12 18.2598 12.0527 18.3536 12.1464C18.4473 12.2402 18.5 12.3674 18.5 12.5C18.5 12.6326 18.4473 12.7598 18.3536 12.8536C18.2598 12.9473 18.1326 13 18 13ZM18.5 8.5C18.5 8.63261 18.4473 8.75979 18.3536 8.85355C18.2598 8.94732 18.1326 9 18 9H8C7.86739 9 7.74021 8.94732 7.64645 8.85355C7.55268 8.75979 7.5 8.63261 7.5 8.5V4.5C7.5 4.36739 7.55268 4.24021 7.64645 4.14645C7.74021 4.05268 7.86739 4 8 4H18C18.1326 4 18.2598 4.05268 18.3536 4.14645C18.4473 4.24021 18.5 4.36739 18.5 4.5V8.5Z" fill="#EB6309"/>
</svg>
