<svg width="22" height="22" viewBox="0 0 22 22" fill="none" xmlns="http://www.w3.org/2000/svg">
<path d="M19.1319 11.5524C18.8969 10.9951 17.6223 10.3424 17.0258 10.169L16.383 9.58235L16.3071 9.52882C15.6891 9.29428 15.0403 9.15087 14.381 9.10312C14.0434 8.89056 13.6821 8.71828 13.3045 8.58978C12.8835 8.48272 11.9372 8.77092 11.5496 8.89888L11.4495 8.93188L11.382 9.01328C11.0223 9.44852 9.84753 10.9247 9.84753 11.6635C9.84753 12.0372 10.2047 12.373 10.6175 12.7635C10.8135 12.93 10.9909 13.1171 11.1466 13.3216C11.1657 13.4937 11.1952 13.6646 11.235 13.8331C11.327 14.2731 11.481 15.0138 11.2955 15.302C11.0433 15.7562 10.8862 16.2571 10.8339 16.774C10.7816 17.2909 10.8351 17.8131 10.9912 18.3086C11.0461 18.4972 11.1466 18.6695 11.2838 18.8101C11.4209 18.9508 11.5905 19.0556 11.7777 19.1153C11.8742 19.1409 11.9737 19.1532 12.0736 19.152C12.7735 19.152 13.611 18.5756 14.3612 18.0597C14.6336 17.8557 14.923 17.6755 15.2262 17.521C15.8807 17.2644 16.1931 16.421 16.4211 15.8047C16.4676 15.6669 16.5229 15.5321 16.5865 15.4013C16.9414 14.9458 17.4027 14.5843 17.93 14.3486C18.66 13.9849 19.4615 12.336 19.1319 11.5524Z" fill="#EB6309"/>
<path d="M11 0C8.82441 0 6.69767 0.645139 4.88873 1.85383C3.07979 3.06253 1.66989 4.78049 0.83733 6.79048C0.00476623 8.80047 -0.213071 11.0122 0.211367 13.146C0.635804 15.2798 1.68345 17.2398 3.22183 18.7782C4.76021 20.3165 6.72022 21.3642 8.85401 21.7886C10.9878 22.2131 13.1995 21.9952 15.2095 21.1627C17.2195 20.3301 18.9375 18.9202 20.1462 17.1113C21.3549 15.3023 22 13.1756 22 11C21.9967 8.08363 20.8367 5.28765 18.7745 3.22547C16.7123 1.16328 13.9164 0.00329961 11 0ZM11 21.2667C8.60443 21.2689 6.28423 20.4293 4.44474 18.8947L5.13004 17.868C5.4873 17.7769 5.80465 17.5707 6.03314 17.2814C6.52154 16.4014 5.90737 15.1136 5.72147 14.7627C5.7037 14.4107 5.64211 14.0622 5.53814 13.7254C5.39734 13.3734 4.81837 13.0346 4.49094 12.8663C4.25334 12.4579 3.78364 11.5412 3.78364 11C3.77848 10.8848 3.7963 10.7697 3.83605 10.6615C3.8758 10.5532 3.93669 10.4539 4.01518 10.3695C4.09366 10.285 4.18818 10.2169 4.29321 10.1693C4.39824 10.1217 4.5117 10.0955 4.62697 10.0921C5.22866 9.97247 5.7582 9.61874 6.09914 9.10873C6.4427 9.00386 7.19474 8.73033 7.45104 8.2819C7.72567 7.80046 7.4195 6.6946 7.2402 6.14826C7.33343 5.71389 7.31858 5.26326 7.19694 4.83597C7.02354 4.42722 6.74434 4.07208 6.38807 3.8071C6.15827 3.2799 5.85657 2.78706 5.49157 2.34263C6.7196 1.55779 8.10154 1.04517 9.54434 0.8393C9.35268 1.15113 9.2854 1.52366 9.35587 1.88283C9.48127 2.22823 9.9748 2.48307 10.3902 2.6411C10.3378 3.04957 10.3334 3.718 10.7701 4.0678C11.2068 4.4176 11.7421 4.26507 12.0982 4.16717L12.2342 4.1305C12.2975 4.62206 12.3178 5.11821 12.2947 5.6133L12.2899 5.75996L12.3893 5.86997C12.4285 5.91323 13.3657 6.93623 14.3473 7.0741C14.3977 7.0812 14.4486 7.08463 14.4995 7.08436C15.389 7.08436 16.4186 6.072 16.7644 5.70313C17.6166 5.50328 18.4536 5.24328 19.2691 4.92507C20.3942 6.45368 21.0733 8.26446 21.2307 10.156C21.3882 12.0475 21.0178 13.9456 20.1608 15.6392C19.3038 17.3328 17.9938 18.7555 16.3766 19.749C14.7593 20.7425 12.8981 21.2678 11 21.2667Z" fill="#EB6309"/>
</svg>
