<svg width="24" height="24" viewBox="0 0 24 24" fill="none" xmlns="http://www.w3.org/2000/svg">
<path fill-rule="evenodd" clip-rule="evenodd" d="M16.359 3.26671C17.4514 2.72052 19.1225 2.30493 20.4747 3.6572C21.827 5.00947 21.4114 6.68054 20.8653 7.77293C20.584 8.33559 20.2378 8.81837 19.9676 9.15604C19.8314 9.32637 19.7116 9.46341 19.6245 9.55921C19.5808 9.60719 19.5453 9.64503 19.5197 9.67176C19.5069 9.68513 19.4966 9.69573 19.4891 9.70345C19.4853 9.70731 19.4822 9.71045 19.4798 9.71286L19.4768 9.71591L19.4757 9.71702C19.4757 9.71702 19.4748 9.71785 18.9445 9.18753L19.4748 9.71785L14.4763 14.7163C13.749 15.4436 12.8164 16.069 11.6974 16.262C11.2048 16.347 10.6178 16.4105 10.0594 16.3688C9.52089 16.3285 8.87719 16.1809 8.41411 15.7179C7.95103 15.2548 7.80343 14.6111 7.76318 14.0726C7.72144 13.5141 7.78496 12.9271 7.86991 12.4346C8.06291 11.3155 8.68843 10.3829 9.41565 9.65562L14.4142 4.6572L14.8383 5.08129C14.4142 4.65718 14.4142 4.6572 14.4142 4.6572L14.415 4.65638L14.4161 4.65527L14.4192 4.65224C14.4216 4.64987 14.4247 4.64677 14.4286 4.64299C14.4363 4.63544 14.4469 4.62514 14.4603 4.61235C14.487 4.58679 14.5248 4.5512 14.5728 4.50758C14.6686 4.42049 14.8056 4.30065 14.976 4.16439C15.3136 3.89425 15.7964 3.54805 16.359 3.26671ZM17.8838 9.18753L13.4157 13.6556C12.8256 14.2457 12.1592 14.6602 11.4424 14.7838C11.0082 14.8588 10.5567 14.9018 10.1712 14.873C9.76582 14.8427 9.56019 14.7426 9.47477 14.6572C9.38936 14.5718 9.28931 14.3661 9.25901 13.9607C9.23019 13.5752 9.27319 13.1237 9.34809 12.6895C9.4717 11.9728 9.88626 11.3064 10.4763 10.7163L14.9445 6.24819L17.8838 9.18753ZM16.0479 5.23028L18.9017 8.0841C19.1077 7.81407 19.3375 7.47445 19.5236 7.10213C19.9774 6.19452 20.0618 5.3656 19.4141 4.71786C18.7663 4.07014 17.9375 4.15454 17.0299 4.60835C16.6576 4.79451 16.3179 5.02425 16.0479 5.23028ZM5.84283 5.84286C4.75773 6.92796 4.25 8.77796 4.25 12C4.25 15.2221 4.75773 17.0721 5.84283 18.1572C6.92793 19.2423 8.77793 19.75 12 19.75C15.2221 19.75 17.0721 19.2423 18.1572 18.1572C19.2423 17.0721 19.75 15.2221 19.75 12C19.75 11.5858 20.0858 11.25 20.5 11.25C20.9142 11.25 21.25 11.5858 21.25 12C21.25 15.278 20.7577 17.678 19.2178 19.2179C17.6779 20.7578 15.2779 21.25 12 21.25C8.72207 21.25 6.32207 20.7578 4.78217 19.2179C3.24227 17.678 2.75 15.278 2.75 12C2.75 8.7221 3.24227 6.3221 4.78217 4.7822C6.32207 3.2423 8.72207 2.75003 12 2.75003C12.4142 2.75003 12.75 3.08582 12.75 3.50003C12.75 3.91424 12.4142 4.25003 12 4.25003C8.77793 4.25003 6.92793 4.75776 5.84283 5.84286Z" fill="#0395E7"/>
</svg>
