<svg width="22" height="20" viewBox="0 0 22 20" fill="none" xmlns="http://www.w3.org/2000/svg">
<path fill-rule="evenodd" clip-rule="evenodd" d="M6.56 0.350101C3.072 0.350101 0.25 3.1901 0.25 6.6901C0.25 10.4401 1.99 13.4001 4.066 15.5281C6.132 17.6441 8.576 18.9861 10.134 19.5181C10.409 19.6151 10.723 19.6501 11 19.6501C11.277 19.6501 11.591 19.6151 11.866 19.5191C13.424 18.9861 15.868 17.6441 17.934 15.5281C20.011 13.4001 21.75 10.4401 21.75 6.6901C21.75 3.1901 18.928 0.350101 15.44 0.350101C14.6149 0.350159 13.7979 0.513175 13.036 0.829791C12.2741 1.14641 11.5822 1.61039 11 2.1951C10.4184 1.60963 9.72661 1.14515 8.96455 0.828486C8.20248 0.511817 7.38524 0.349226 6.56 0.350101ZM19.216 9.1951C19.2755 9.00521 19.2572 8.79944 19.165 8.62306C19.0729 8.44668 18.9144 8.31414 18.7245 8.2546C18.5346 8.19506 18.3288 8.21339 18.1525 8.30557C17.9761 8.39774 17.8435 8.55621 17.784 8.7461C17.044 11.1041 15.51 13.0081 13.844 14.4301C13.766 14.4931 13.7014 14.5711 13.6541 14.6594C13.6068 14.7478 13.5776 14.8447 13.5684 14.9445C13.5592 15.0443 13.57 15.145 13.6004 15.2405C13.6307 15.3361 13.6799 15.4246 13.745 15.5008C13.8101 15.577 13.8898 15.6394 13.9795 15.6842C14.0691 15.7291 14.1668 15.7556 14.2669 15.762C14.3669 15.7685 14.4672 15.7548 14.5619 15.7219C14.6565 15.6889 14.7436 15.6373 14.818 15.5701C16.628 14.0251 18.368 11.8971 19.216 9.1951Z" fill="#EB6309"/>
</svg>
