<svg width="20" height="14" viewBox="0 0 20 14" fill="none" xmlns="http://www.w3.org/2000/svg">
<path d="M19.0323 0H0.967742C0.711081 0 0.464932 0.0961953 0.283445 0.267424C0.101958 0.438653 0 0.670889 0 0.913043V13.087C0 13.3291 0.101958 13.5613 0.283445 13.7326C0.464932 13.9038 0.711081 14 0.967742 14H19.0323C19.2889 14 19.5351 13.9038 19.7166 13.7326C19.898 13.5613 20 13.3291 20 13.087V0.913043C20 0.670889 19.898 0.438653 19.7166 0.267424C19.5351 0.0961953 19.2889 0 19.0323 0ZM15.8639 2.72178C15.8212 2.6545 15.8077 2.57428 15.8262 2.49786C15.8447 2.42143 15.8938 2.35468 15.9631 2.31152C16.0325 2.26836 16.1168 2.25212 16.1986 2.26618C16.2803 2.28024 16.3532 2.32352 16.4019 2.387C16.8551 3.03333 17.0968 3.79117 17.0968 4.56613C17.0968 5.34109 16.8551 6.09893 16.4019 6.74526C16.3532 6.80874 16.2803 6.85202 16.1986 6.86608C16.1168 6.88014 16.0325 6.8639 15.9631 6.82074C15.8938 6.77758 15.8447 6.71083 15.8262 6.6344C15.8077 6.55798 15.8212 6.47776 15.8639 6.41048C16.2472 5.8637 16.4516 5.22261 16.4516 4.56704C16.4516 3.91147 16.2472 3.27039 15.8639 2.72361V2.72178ZM14.8161 3.43913C14.7707 3.37052 14.7559 3.28768 14.7752 3.20883C14.7945 3.12998 14.8462 3.06158 14.9189 3.01867C14.9916 2.97577 15.0794 2.96188 15.163 2.98006C15.2465 2.99824 15.319 3.047 15.3645 3.11561C15.6543 3.55023 15.8081 4.05326 15.8081 4.56674C15.8081 5.08022 15.6543 5.58325 15.3645 6.01787C15.3354 6.06157 15.295 6.09758 15.2471 6.12249C15.1992 6.14741 15.1453 6.16042 15.0906 6.1603C15.0302 6.16047 14.9709 6.14443 14.9197 6.11404C14.8838 6.09281 14.8526 6.06511 14.8281 6.03252C14.8035 5.99994 14.786 5.9631 14.7765 5.92412C14.7671 5.88515 14.7658 5.84479 14.7729 5.80537C14.78 5.76594 14.7952 5.72822 14.8177 5.69435C15.0433 5.35673 15.1629 4.96581 15.1629 4.56674C15.1629 4.16767 15.0433 3.77675 14.8177 3.43913H14.8161ZM13.7552 4.14522C13.7159 4.07388 13.7081 3.99077 13.7335 3.91404C13.759 3.83731 13.8155 3.77319 13.8909 3.73569C13.9663 3.69818 14.0543 3.69034 14.1358 3.71386C14.2173 3.73739 14.2856 3.79038 14.3258 3.86126C14.4507 4.07773 14.5162 4.32027 14.5162 4.56674C14.5162 4.81321 14.4507 5.05575 14.3258 5.27222C14.3062 5.30782 14.2793 5.33942 14.2467 5.36518C14.2141 5.39095 14.1764 5.41038 14.1359 5.42236C14.0953 5.43434 14.0526 5.43862 14.0102 5.43497C13.9679 5.43132 13.9267 5.41981 13.8891 5.40109C13.8515 5.38237 13.8181 5.35682 13.791 5.3259C13.7639 5.29499 13.7436 5.25932 13.7311 5.22095C13.7187 5.18259 13.7144 5.14228 13.7185 5.10234C13.7226 5.06241 13.7351 5.02364 13.7552 4.98826C13.8311 4.85933 13.871 4.71425 13.871 4.56674C13.871 4.41923 13.8311 4.27415 13.7552 4.14522ZM2.58065 2.73913C2.58065 2.65841 2.61463 2.581 2.67513 2.52392C2.73562 2.46685 2.81767 2.43478 2.90323 2.43478H6.12903C6.21459 2.43478 6.29664 2.46685 6.35713 2.52392C6.41763 2.581 6.45161 2.65841 6.45161 2.73913V4.86957C6.45161 4.95028 6.41763 5.0277 6.35713 5.08477C6.29664 5.14185 6.21459 5.17391 6.12903 5.17391H2.90323C2.81767 5.17391 2.73562 5.14185 2.67513 5.08477C2.61463 5.0277 2.58065 4.95028 2.58065 4.86957V2.73913ZM11.2903 10.9565H2.90323C2.81767 10.9565 2.73562 10.9245 2.67513 10.8674C2.61463 10.8103 2.58065 10.7329 2.58065 10.6522C2.58065 10.5715 2.61463 10.494 2.67513 10.437C2.73562 10.3799 2.81767 10.3478 2.90323 10.3478H11.2903C11.3759 10.3478 11.4579 10.3799 11.5184 10.437C11.5789 10.494 11.6129 10.5715 11.6129 10.6522C11.6129 10.7329 11.5789 10.8103 11.5184 10.8674C11.4579 10.9245 11.3759 10.9565 11.2903 10.9565ZM12.7419 5.02174C12.6462 5.02174 12.5527 4.99496 12.4731 4.9448C12.3935 4.89464 12.3315 4.82334 12.2949 4.73992C12.2583 4.6565 12.2487 4.56471 12.2674 4.47615C12.286 4.3876 12.3321 4.30625 12.3998 4.24241C12.4675 4.17856 12.5537 4.13508 12.6475 4.11747C12.7414 4.09985 12.8387 4.10889 12.9271 4.14345C13.0155 4.178 13.0911 4.23651 13.1443 4.31159C13.1974 4.38666 13.2258 4.47493 13.2258 4.56522C13.2258 4.68629 13.1748 4.80241 13.0841 4.88803C12.9933 4.97364 12.8703 5.02174 12.7419 5.02174ZM17.0968 10.9565H13.871C13.7854 10.9565 13.7034 10.9245 13.6429 10.8674C13.5824 10.8103 13.5484 10.7329 13.5484 10.6522C13.5484 10.5715 13.5824 10.494 13.6429 10.437C13.7034 10.3799 13.7854 10.3478 13.871 10.3478H17.0968C17.1823 10.3478 17.2644 10.3799 17.3249 10.437C17.3854 10.494 17.4194 10.5715 17.4194 10.6522C17.4194 10.7329 17.3854 10.8103 17.3249 10.8674C17.2644 10.9245 17.1823 10.9565 17.0968 10.9565Z" fill="#EB6309"/>
</svg>
