<svg width="22" height="22" viewBox="0 0 22 22" fill="none" xmlns="http://www.w3.org/2000/svg">
<path d="M21.0559 14.928L18.954 13.7283L11.7 17.871C11.4868 17.9928 11.2455 18.0568 11 18.0568C10.7544 18.0568 10.5132 17.9928 10.3 17.871L3.04773 13.7266L0.944111 14.928C0.890144 14.9588 0.845294 15.0034 0.814101 15.0572C0.782908 15.111 0.766479 15.1721 0.766479 15.2342C0.766479 15.2964 0.782908 15.3575 0.814101 15.4113C0.845294 15.465 0.890144 15.5096 0.944111 15.5405L10.8236 21.1859C10.8769 21.2164 10.9372 21.2324 10.9986 21.2324C11.06 21.2324 11.1203 21.2164 11.1736 21.1859L21.053 15.5405C21.107 15.5096 21.1519 15.465 21.183 15.4113C21.2142 15.3575 21.2307 15.2964 21.2307 15.2342C21.2307 15.1721 21.2142 15.111 21.183 15.0572C21.1519 15.0034 21.107 14.9588 21.053 14.928H21.0559Z" fill="#EB6309"/>
<path d="M21.0559 10.6941L18.954 9.49444L11.7 13.6371C11.4868 13.7589 11.2455 13.823 11 13.823C10.7544 13.823 10.5132 13.7589 10.3 13.6371L3.04773 9.49268L0.944111 10.6941C0.890144 10.725 0.845294 10.7695 0.814101 10.8233C0.782908 10.8771 0.766479 10.9382 0.766479 11.0004C0.766479 11.0625 0.782908 11.1236 0.814101 11.1774C0.845294 11.2312 0.890144 11.2757 0.944111 11.3066L10.8236 16.952C10.8769 16.9825 10.9372 16.9985 10.9986 16.9985C11.06 16.9985 11.1203 16.9825 11.1736 16.952L21.053 11.3066C21.107 11.2757 21.1519 11.2312 21.183 11.1774C21.2142 11.1236 21.2307 11.0625 21.2307 11.0004C21.2307 10.9382 21.2142 10.8771 21.183 10.8233C21.1519 10.7695 21.107 10.725 21.053 10.6941H21.0559Z" fill="#EB6309"/>
<path d="M21.0559 6.45993L11.1764 0.814527C11.1231 0.784081 11.0628 0.768066 11.0014 0.768066C10.9401 0.768066 10.8797 0.784081 10.8264 0.814527L0.946979 6.45993C0.893013 6.4908 0.848163 6.53539 0.81697 6.58917C0.785776 6.64295 0.769348 6.70402 0.769348 6.76619C0.769348 6.82837 0.785776 6.88944 0.81697 6.94322C0.848163 6.997 0.893013 7.04158 0.946979 7.07246L10.8264 12.7179C10.8797 12.7483 10.9401 12.7643 11.0014 12.7643C11.0628 12.7643 11.1231 12.7483 11.1764 12.7179L21.0559 7.07246C21.1099 7.04158 21.1547 6.997 21.1859 6.94322C21.2171 6.88944 21.2335 6.82837 21.2335 6.76619C21.2335 6.70402 21.2171 6.64295 21.1859 6.58917C21.1547 6.53539 21.1099 6.4908 21.0559 6.45993Z" fill="#EB6309"/>
</svg>
