<svg width="20" height="22" viewBox="0 0 20 22" fill="none" xmlns="http://www.w3.org/2000/svg">
<path fill-rule="evenodd" clip-rule="evenodd" d="M1.50083 12.669V12.45C1.53295 11.8021 1.7406 11.1743 2.10236 10.6314C2.7045 9.9793 3.1167 9.18014 3.29571 8.31781C3.29571 7.65134 3.29571 6.97534 3.35393 6.30886C3.65469 3.10025 6.82728 0.881836 9.96106 0.881836H10.0387C13.1725 0.881836 16.345 3.10025 16.6555 6.30886C16.7137 6.97534 16.6555 7.65134 16.704 8.31781C16.8854 9.18214 17.2972 9.98378 17.8974 10.641C18.2618 11.179 18.4698 11.8045 18.4989 12.45V12.6594C18.5206 13.5299 18.2208 14.3787 17.6548 15.0492C16.907 15.8333 15.8921 16.3211 14.8024 16.4203C11.607 16.763 8.38303 16.763 5.18762 16.4203C4.09914 16.3168 3.08576 15.8297 2.33521 15.0492C1.778 14.3781 1.48224 13.5344 1.50083 12.669Z" stroke="#EB6309" stroke-width="1.5" stroke-linecap="round" stroke-linejoin="round"/>
<path d="M7.55493 19.7336C8.05421 20.3603 8.78739 20.7659 9.59222 20.8606C10.3971 20.9553 11.2072 20.7313 11.8433 20.2383C12.0389 20.0924 12.2149 19.9229 12.3672 19.7336" stroke="#EB6309" stroke-width="1.5" stroke-linecap="round" stroke-linejoin="round"/>
</svg>
