<svg width="25" height="18" viewBox="0 0 25 18" fill="none" xmlns="http://www.w3.org/2000/svg">
<path d="M23.4375 0.015625H1.5625C1.2517 0.015625 0.953628 0.13909 0.733859 0.358859C0.51409 0.578628 0.390625 0.876699 0.390625 1.1875V16.8125C0.390625 17.1233 0.51409 17.4214 0.733859 17.6411C0.953628 17.8609 1.2517 17.9844 1.5625 17.9844H23.4375C23.7483 17.9844 24.0464 17.8609 24.2661 17.6411C24.4859 17.4214 24.6094 17.1233 24.6094 16.8125V1.1875C24.6094 0.876699 24.4859 0.578628 24.2661 0.358859C24.0464 0.13909 23.7483 0.015625 23.4375 0.015625ZM19.6008 3.50898C19.5491 3.42263 19.5328 3.31967 19.5552 3.22158C19.5776 3.12348 19.637 3.03781 19.721 2.98242C19.805 2.92703 19.9071 2.90618 20.0061 2.92423C20.1051 2.94228 20.1933 2.99782 20.2523 3.0793C20.8011 3.90885 21.0938 4.88152 21.0938 5.87617C21.0938 6.87082 20.8011 7.8435 20.2523 8.67305C20.1933 8.75452 20.1051 8.81007 20.0061 8.82812C19.9071 8.84616 19.805 8.82532 19.721 8.76992C19.637 8.71453 19.5776 8.62886 19.5552 8.53076C19.5328 8.43267 19.5491 8.32972 19.6008 8.24336C20.065 7.54158 20.3125 6.71876 20.3125 5.87734C20.3125 5.03593 20.065 4.21311 19.6008 3.51133V3.50898ZM18.332 4.42969C18.277 4.34163 18.2591 4.2353 18.2825 4.1341C18.3058 4.03289 18.3684 3.9451 18.4564 3.89004C18.5445 3.83498 18.6508 3.81715 18.752 3.84048C18.8532 3.86381 18.941 3.92639 18.9961 4.01445C19.347 4.57228 19.5332 5.21791 19.5332 5.87695C19.5332 6.53599 19.347 7.18162 18.9961 7.73945C18.9609 7.79555 18.9119 7.84175 18.8539 7.87373C18.7959 7.90571 18.7307 7.92241 18.6645 7.92227C18.5912 7.92248 18.5194 7.90189 18.4574 7.86289C18.4139 7.83564 18.3762 7.80009 18.3465 7.75826C18.3168 7.71643 18.2955 7.66916 18.2841 7.61913C18.2726 7.56911 18.2711 7.51731 18.2797 7.46671C18.2882 7.41611 18.3067 7.36769 18.334 7.32422C18.6071 6.8909 18.752 6.38915 18.752 5.87695C18.752 5.36476 18.6071 4.86301 18.334 4.42969H18.332ZM17.0473 5.33594C16.9997 5.24438 16.9903 5.13771 17.0211 5.03923C17.0519 4.94074 17.1204 4.85845 17.2117 4.81031C17.3029 4.76218 17.4095 4.75211 17.5082 4.7823C17.6069 4.8125 17.6896 4.88051 17.7383 4.97148C17.8895 5.24932 17.9688 5.56062 17.9688 5.87695C17.9688 6.19329 17.8895 6.50459 17.7383 6.78242C17.7145 6.82812 17.682 6.86867 17.6425 6.90174C17.603 6.93482 17.5574 6.95975 17.5083 6.97513C17.4591 6.9905 17.4074 6.996 17.3561 6.99132C17.3048 6.98663 17.255 6.97185 17.2094 6.94783C17.1639 6.9238 17.1235 6.89101 17.0907 6.85133C17.0579 6.81165 17.0332 6.76587 17.0181 6.71663C17.0031 6.66738 16.9979 6.61565 17.0029 6.56439C17.0079 6.51313 17.023 6.46337 17.0473 6.41797C17.1392 6.25248 17.1875 6.06628 17.1875 5.87695C17.1875 5.68763 17.1392 5.50142 17.0473 5.33594ZM3.51562 3.53125C3.51562 3.42765 3.55678 3.32829 3.63004 3.25504C3.70329 3.18178 3.80265 3.14062 3.90625 3.14062H7.8125C7.9161 3.14062 8.01546 3.18178 8.08871 3.25504C8.16197 3.32829 8.20312 3.42765 8.20312 3.53125V6.26562C8.20312 6.36923 8.16197 6.46858 8.08871 6.54184C8.01546 6.6151 7.9161 6.65625 7.8125 6.65625H3.90625C3.80265 6.65625 3.70329 6.6151 3.63004 6.54184C3.55678 6.46858 3.51562 6.36923 3.51562 6.26562V3.53125ZM14.0625 14.0781H3.90625C3.80265 14.0781 3.70329 14.037 3.63004 13.9637C3.55678 13.8905 3.51562 13.7911 3.51562 13.6875C3.51562 13.5839 3.55678 13.4845 3.63004 13.4113C3.70329 13.338 3.80265 13.2969 3.90625 13.2969H14.0625C14.1661 13.2969 14.2655 13.338 14.3387 13.4113C14.412 13.4845 14.4531 13.5839 14.4531 13.6875C14.4531 13.7911 14.412 13.8905 14.3387 13.9637C14.2655 14.037 14.1661 14.0781 14.0625 14.0781ZM15.8203 6.46094C15.7044 6.46094 15.5911 6.42657 15.4948 6.36219C15.3984 6.29781 15.3233 6.20629 15.279 6.09923C15.2346 5.99216 15.223 5.87435 15.2456 5.76069C15.2682 5.64703 15.324 5.54262 15.406 5.46068C15.4879 5.37874 15.5923 5.32293 15.706 5.30032C15.8197 5.27771 15.9375 5.28932 16.0445 5.33366C16.1516 5.37801 16.2431 5.45311 16.3075 5.54947C16.3719 5.64583 16.4062 5.75911 16.4062 5.875C16.4062 6.0304 16.3445 6.17944 16.2346 6.28932C16.1247 6.3992 15.9757 6.46094 15.8203 6.46094ZM21.0938 14.0781H17.1875C17.0839 14.0781 16.9845 14.037 16.9113 13.9637C16.838 13.8905 16.7969 13.7911 16.7969 13.6875C16.7969 13.5839 16.838 13.4845 16.9113 13.4113C16.9845 13.338 17.0839 13.2969 17.1875 13.2969H21.0938C21.1973 13.2969 21.2967 13.338 21.37 13.4113C21.4432 13.4845 21.4844 13.5839 21.4844 13.6875C21.4844 13.7911 21.4432 13.8905 21.37 13.9637C21.2967 14.037 21.1973 14.0781 21.0938 14.0781Z" fill="#212121"/>
</svg>
