<svg width="25" height="26" viewBox="0 0 25 26" fill="none" xmlns="http://www.w3.org/2000/svg">
<g clip-path="url(#clip0_118_560)">
<path d="M0.995392 5.17442C1.24202 4.87266 1.6118 4.69688 2.00232 4.69688H18.9622L19.5397 2.71367L19.5401 2.71245C19.8054 1.8249 20.5333 1.15293 21.4387 0.958937L23.5114 0.514504C23.863 0.439455 24.2087 0.662892 24.2837 1.01402C24.3587 1.3647 24.1353 1.71084 23.7842 1.78589L21.7115 2.23028C21.2696 2.32476 20.9151 2.65269 20.7858 3.08506L16.9972 16.1001C17.0826 16.1399 17.1647 16.1834 17.2443 16.2307C17.6531 16.4741 17.9805 16.8156 18.2002 17.2145C18.41 17.5938 18.5219 18.0232 18.5323 18.4664H18.5344V18.5339H18.5327C18.524 18.8796 18.4507 19.2122 18.3221 19.5151C18.1173 19.9993 17.7766 20.4093 17.3471 20.6999C16.9176 20.9901 16.3961 21.1605 15.8403 21.1601H3.65423C3.29481 21.1601 3.00384 20.869 3.00384 20.5101C3.00384 20.1511 3.29486 19.8596 3.65423 19.8596H15.8403C16.0347 19.8596 16.2162 19.821 16.3825 19.7506C16.6316 19.6453 16.8459 19.4679 16.9964 19.2448C17.1407 19.0309 17.2252 18.778 17.2327 18.5011C17.2252 18.1708 17.12 17.8843 16.9351 17.6551C16.8389 17.5365 16.7211 17.4329 16.5778 17.3471C16.436 17.2625 16.2693 17.1958 16.0737 17.1535L3.82464 15.1595C3.02376 15.029 2.38782 14.4175 2.22615 13.6228L0.728008 6.25718V6.2563C0.710625 6.17095 0.701445 6.08389 0.701836 5.99766C0.701445 5.70049 0.803888 5.40904 0.995392 5.17442Z" fill="black"/>
<path d="M14.3359 22.218C14.6211 22.0245 14.9693 21.9112 15.3391 21.9112C15.5854 21.9112 15.8228 21.9614 16.038 22.0526C16.3605 22.189 16.6333 22.4162 16.8265 22.7022C17.0201 22.9874 17.1337 23.3356 17.1333 23.7054C17.1333 23.9517 17.0831 24.1892 16.9923 24.4043C16.8556 24.7269 16.6288 25.0001 16.3427 25.1932C16.0571 25.3864 15.7089 25.5004 15.3391 25.5C15.0929 25.5004 14.8557 25.4498 14.6406 25.3586C14.3177 25.2218 14.0449 24.9955 13.8518 24.7094C13.6586 24.4234 13.545 24.0752 13.545 23.7054C13.545 23.4592 13.5956 23.222 13.6859 23.0073C13.8227 22.6844 14.0494 22.4116 14.3359 22.218ZM14.6725 23.9873C14.7272 24.1162 14.8192 24.2277 14.9353 24.3057C15.0514 24.384 15.1874 24.4288 15.3391 24.4292C15.4402 24.4292 15.5339 24.4089 15.6201 24.3724C15.7495 24.3181 15.8614 24.2252 15.9394 24.1096C16.0172 23.9935 16.062 23.8571 16.0624 23.7054C16.062 23.6042 16.0421 23.5106 16.0057 23.4244C15.9514 23.295 15.8589 23.1835 15.7429 23.1056C15.6268 23.0272 15.4908 22.9825 15.3391 22.982C15.2379 22.9825 15.1442 23.0023 15.058 23.0388C14.9287 23.0935 14.8171 23.1855 14.7388 23.3016C14.6608 23.4177 14.6161 23.5537 14.6161 23.7054C14.6161 23.807 14.636 23.9007 14.6725 23.9873Z" fill="black"/>
<path d="M4.4954 22.218C4.78099 22.0245 5.12884 21.9112 5.49857 21.9112C5.74481 21.9112 5.9828 21.9614 6.1975 22.0526C6.52001 22.189 6.79281 22.4162 6.98636 22.7022C7.17997 22.9874 7.29359 23.3356 7.29315 23.7054C7.29315 23.9517 7.24295 24.1892 7.15179 24.4043C7.01498 24.7269 6.78861 25.0001 6.50262 25.1932C6.21659 25.3864 5.86834 25.5004 5.49857 25.5C5.25238 25.5004 5.01527 25.4498 4.80052 25.3586C4.47757 25.2218 4.20438 24.9955 4.01122 24.7094C3.81805 24.4234 3.70448 24.0752 3.70448 23.7054C3.70448 23.4592 3.75506 23.222 3.84584 23.0073C3.9826 22.6844 4.20936 22.4116 4.4954 22.218ZM4.83197 23.9873C4.88671 24.1162 4.97914 24.2277 5.09481 24.3057C5.21088 24.384 5.34686 24.4288 5.49852 24.4292C5.60008 24.4292 5.69422 24.4089 5.78045 24.3724C5.90897 24.3181 6.02089 24.2252 6.09882 24.1096C6.17674 23.9935 6.22196 23.8571 6.22235 23.7054C6.22235 23.6042 6.20165 23.5106 6.16556 23.4244C6.11126 23.295 6.01844 23.1835 5.90316 23.1056C5.78705 23.0272 5.65028 22.9825 5.49852 22.982C5.3974 22.9825 5.30375 23.0023 5.21747 23.0388C5.08817 23.0935 4.97704 23.1855 4.89872 23.3016C4.82079 23.4177 4.77557 23.5537 4.77557 23.7054C4.77562 23.807 4.79549 23.9007 4.83197 23.9873Z" fill="black"/>
<path fill-rule="evenodd" clip-rule="evenodd" d="M10.4905 6.51614C8.41976 6.51614 6.74105 8.19484 6.74105 10.2656C6.74105 12.3364 8.41975 14.0151 10.4905 14.0151C12.5613 14.0151 14.24 12.3364 14.24 10.2656C14.24 8.19484 12.5613 6.51614 10.4905 6.51614ZM6.05933 10.2656C6.05933 7.81833 8.04325 5.83441 10.4905 5.83441C12.9378 5.83441 14.9218 7.81834 14.9218 10.2656C14.9218 12.7129 12.9378 14.6968 10.4905 14.6968C8.04325 14.6968 6.05933 12.7129 6.05933 10.2656ZM10.4905 7.19786C10.6788 7.19786 10.8314 7.35047 10.8314 7.53872V8.10683H11.854C12.0422 8.10683 12.1949 8.25944 12.1949 8.44769C12.1949 8.63594 12.0422 8.78855 11.854 8.78855H10.0361C9.9391 8.78855 9.78609 8.82044 9.66712 8.90611C9.56552 8.97925 9.46795 9.10416 9.46795 9.35666C9.46795 9.60915 9.56552 9.73406 9.66712 9.80721C9.78609 9.89287 9.9391 9.92476 10.0361 9.92476H10.945C11.1511 9.92476 11.4525 9.98377 11.7123 10.1708C11.9894 10.3703 12.1949 10.6999 12.1949 11.1746C12.1949 11.6493 11.9894 11.9788 11.7123 12.1784C11.4525 12.3654 11.1511 12.4244 10.945 12.4244H10.8314V12.9925C10.8314 13.1808 10.6788 13.3334 10.4905 13.3334C10.3023 13.3334 10.1497 13.1808 10.1497 12.9925V12.4244H9.12709C8.93884 12.4244 8.78623 12.2718 8.78623 12.0836C8.78623 11.8953 8.93884 11.7427 9.12709 11.7427H10.945C11.042 11.7427 11.195 11.7108 11.314 11.6251C11.4156 11.552 11.5131 11.4271 11.5131 11.1746C11.5131 10.9221 11.4156 10.7972 11.314 10.724C11.195 10.6384 11.042 10.6065 10.945 10.6065H10.0361C9.83001 10.6065 9.52854 10.5475 9.26878 10.3605C8.99164 10.1609 8.78623 9.83134 8.78623 9.35666C8.78623 8.88198 8.99164 8.55241 9.26878 8.35286C9.52854 8.16584 9.83001 8.10683 10.0361 8.10683H10.1497V7.53872C10.1497 7.35047 10.3023 7.19786 10.4905 7.19786Z" fill="white"/>
</g>
<defs>
<clipPath id="clip0_118_560">
<rect width="25" height="25" fill="white" transform="matrix(-1 0 0 1 25 0.5)"/>
</clipPath>
</defs>
</svg>
