<svg width="25" height="24" viewBox="0 0 25 24" fill="none" xmlns="http://www.w3.org/2000/svg">
<path d="M14.0848 16.8218C14.5826 16.683 15.0813 16.5408 15.5816 16.4059C16.4413 16.1731 17.2946 15.9086 18.1631 15.724C18.9955 15.5486 19.6803 15.9432 19.9506 16.6582C20.2151 17.3566 19.9312 18.1438 19.2376 18.5894C17.3867 19.7769 15.5178 20.9308 13.6917 22.1514C12.228 23.1304 10.6689 23.3526 8.9846 22.9795C7.84063 22.7272 6.69502 22.4799 5.5478 22.2376C5.39242 22.205 5.35297 22.147 5.35297 21.9941C5.35784 20.0598 5.35784 18.1254 5.35297 16.1911C5.35297 16.0576 5.38463 15.9831 5.51809 15.9344C6.08066 15.7284 6.65541 15.5827 7.25695 15.5808C8.73668 15.5759 10.2164 15.5759 11.6962 15.5808C12.5174 15.5842 13.1866 16.1453 13.2704 16.9095C13.3571 17.6976 12.7896 18.7604 11.6699 18.7546C10.5043 18.7492 9.33871 18.7468 8.17314 18.7619C8.0314 18.7619 7.83949 18.8471 7.76107 18.9567C7.58524 19.2002 7.77617 19.5412 8.08108 19.5412C9.34748 19.5475 10.6139 19.5797 11.8749 19.5295C13.136 19.4793 14.1203 18.3581 14.0848 17.0878C14.0848 17.0064 14.0848 16.9246 14.0848 16.8218Z" fill="black"/>
<path d="M15.6746 9.24392H17.2416C17.2512 9.2813 17.2577 9.31943 17.261 9.35789C17.261 10.2502 17.2688 11.143 17.261 12.0368C17.2546 12.3377 17.1342 12.625 16.9242 12.8406C16.7142 13.0562 16.4302 13.1841 16.1296 13.1985C16.0472 13.2034 15.9644 13.2014 15.8816 13.2014H3.55861C2.64778 13.2014 2.18506 12.7392 2.18506 11.8298C2.18506 9.55678 2.18506 7.28376 2.18506 5.01074C2.18506 4.15251 2.66142 3.67761 3.52111 3.67712C7.67002 3.67712 11.8191 3.67712 15.9683 3.67712C16.4656 3.67712 16.8451 3.86562 17.1047 4.29279C17.1323 4.35095 17.1553 4.41121 17.1734 4.47301C16.5718 4.47301 15.9956 4.46765 15.4199 4.47301C14.8442 4.47836 14.2631 4.47301 13.6883 4.52171C13.2232 4.55873 12.8213 4.78863 12.4877 5.11254C12.4337 5.1668 12.3688 5.20887 12.2972 5.23593C12.2256 5.26298 12.1491 5.27439 12.0727 5.26938C9.89904 5.26483 7.72522 5.26386 5.55124 5.26645C5.09729 5.26645 5.02276 5.32977 4.95701 5.76863C4.93122 5.94602 4.8469 6.10971 4.71744 6.23369C4.58798 6.35768 4.42081 6.43486 4.24247 6.45297C3.87132 6.49876 3.77341 6.6064 3.77293 6.97804C3.77293 7.95219 3.77293 8.92748 3.77293 9.9039C3.77293 10.2746 3.87278 10.3837 4.24344 10.428C4.64041 10.4767 4.91561 10.7573 4.9609 11.162C4.99792 11.4971 5.12018 11.6145 5.45285 11.615C8.30419 11.615 11.1557 11.615 14.0074 11.615C14.3259 11.615 14.4545 11.4927 14.4891 11.1766C14.5378 10.7383 14.8052 10.4704 15.2397 10.4251C15.5548 10.3924 15.6732 10.2639 15.678 9.94384C15.6766 9.71346 15.6746 9.48405 15.6746 9.24392Z" fill="black"/>
<path d="M18.0301 5.26403C18.2006 3.90655 17.3039 2.88466 15.9654 2.88369C14.1967 2.88369 12.4279 2.88369 10.6592 2.88369H10.3397C10.4249 2.81257 10.4751 2.76581 10.5301 2.72636C10.9125 2.45116 11.3007 2.18473 11.6777 1.90272C12.8905 0.995294 14.2699 0.687949 15.7326 0.926129C17.0413 1.13898 18.3277 1.48919 19.6409 1.78241V2.04738C19.6409 3.95672 19.6375 5.86605 19.6452 7.77539C19.6452 7.96486 19.5878 8.04718 19.411 8.10904C18.8372 8.31069 18.2532 8.44074 17.6429 8.44025C16.4442 8.44025 15.246 8.44804 14.0478 8.43538C13.2621 8.42759 12.6197 7.83287 12.5096 7.04965C12.4058 6.31124 12.8798 5.56504 13.6133 5.34488C13.8121 5.29054 14.0175 5.26447 14.2236 5.26744C15.489 5.26062 16.753 5.26403 18.0301 5.26403Z" fill="black"/>
<path d="M24.405 4.87486C24.405 6.01559 24.405 7.15649 24.405 8.29754C24.405 8.7062 24.2788 8.83333 23.877 8.83333C22.9028 8.83333 21.9272 8.83333 20.9501 8.83333C20.5746 8.83333 20.4368 8.69938 20.4368 8.33115C20.4368 6.02566 20.4368 3.71919 20.4368 1.41175C20.4368 1.03719 20.5717 0.89886 20.9394 0.898373C21.9233 0.896425 22.9071 0.896425 23.8906 0.898373C24.273 0.898373 24.4045 1.03573 24.405 1.42636C24.4053 2.57651 24.4053 3.72601 24.405 4.87486Z" fill="black"/>
<path d="M0.59523 19.154C0.59523 18.0142 0.59523 16.8743 0.59523 15.7342C0.59523 15.308 0.716512 15.1833 1.13101 15.1828C2.10517 15.1828 3.07932 15.1828 4.05347 15.1828C4.4256 15.1828 4.55905 15.3178 4.55905 15.6918C4.55905 17.9973 4.55905 20.3018 4.55905 22.6054C4.55905 22.9907 4.42657 23.1197 4.03399 23.1202C3.05983 23.1202 2.08568 23.1202 1.11153 23.1202C0.72187 23.1202 0.593769 22.9877 0.593282 22.5981C0.592957 21.4505 0.593607 20.3025 0.59523 19.154Z" fill="black"/>
<path d="M11.3085 8.44659C11.3071 8.76108 11.2123 9.06807 11.0361 9.32858C10.8599 9.5891 10.6103 9.79139 10.319 9.90978C10.0276 10.0282 9.70765 10.0573 9.39969 9.99352C9.09174 9.92972 8.80968 9.77586 8.58933 9.55146C8.36899 9.32707 8.22028 9.04226 8.1621 8.7332C8.10392 8.42413 8.13888 8.10475 8.26255 7.81559C8.38622 7.52643 8.59302 7.28054 8.8567 7.10914C9.12038 6.93773 9.42904 6.84853 9.7435 6.85287C10.1608 6.86152 10.5582 7.03311 10.8506 7.33093C11.1431 7.62875 11.3074 8.02918 11.3085 8.44659Z" fill="black"/>
</svg>
