<svg width="55" height="55" viewBox="0 0 55 55" fill="none" xmlns="http://www.w3.org/2000/svg">
<rect width="55" height="55" rx="27.5" fill="#EB6309"/>
<path d="M26.4114 33.2598L25.3007 16.1302C25.3007 15.445 25.3896 14.874 25.5673 14.4172C25.745 13.9319 25.9967 13.575 26.3225 13.3466C26.678 13.0897 27.0926 12.9612 27.5665 12.9612C28.0404 12.9612 28.4402 13.0897 28.766 13.3466C29.0918 13.575 29.3436 13.9604 29.5213 14.5029C29.7286 15.0167 29.8323 15.7019 29.8323 16.5584L28.6328 33.2598H26.4114ZM27.4776 42.0388C26.7668 42.0388 26.1448 41.7961 25.6117 41.3108C25.1082 40.8254 24.8564 40.2402 24.8564 39.555C24.8564 38.8698 25.1082 38.2703 25.6117 37.7564C26.1448 37.2425 26.7668 36.9855 27.4776 36.9855C28.1885 36.9855 28.8105 37.2425 29.3436 37.7564C29.8767 38.2703 30.1433 38.8698 30.1433 39.555C30.1433 40.2116 29.8767 40.7969 29.3436 41.3108C28.8105 41.7961 28.1885 42.0388 27.4776 42.0388Z" fill="white"/>
</svg>
