<svg width="20" height="20" viewBox="0 0 20 20" fill="none" xmlns="http://www.w3.org/2000/svg">
<path d="M10 0C8.02219 0 6.08879 0.58649 4.4443 1.6853C2.79981 2.78412 1.51809 4.3459 0.761209 6.17317C0.00433281 8.00043 -0.1937 10.0111 0.192152 11.9509C0.578004 13.8907 1.53041 15.6725 2.92894 17.0711C4.32746 18.4696 6.10929 19.422 8.0491 19.8079C9.98891 20.1937 11.9996 19.9957 13.8268 19.2388C15.6541 18.4819 17.2159 17.2002 18.3147 15.5557C19.4135 13.9112 20 11.9778 20 10C19.9921 7.35027 18.936 4.81133 17.0623 2.93767C15.1887 1.06402 12.6497 0.00791363 10 0ZM10 17.5C8.51664 17.5 7.0666 17.0601 5.83323 16.236C4.59986 15.4119 3.63857 14.2406 3.07091 12.8701C2.50325 11.4997 2.35473 9.99168 2.64411 8.53682C2.9335 7.08197 3.64781 5.74559 4.6967 4.6967C5.7456 3.64781 7.08197 2.9335 8.53683 2.64411C9.99169 2.35472 11.4997 2.50325 12.8701 3.0709C14.2406 3.63856 15.4119 4.59985 16.236 5.83322C17.0601 7.06659 17.5 8.51664 17.5 10C17.4941 11.9873 16.702 13.8915 15.2967 15.2967C13.8915 16.702 11.9873 17.4941 10 17.5Z" fill="#EB6309"/>
<path d="M14.375 8.75H11.25V5.625C11.25 5.29348 11.1183 4.97554 10.8839 4.74112C10.6495 4.5067 10.3315 4.375 10 4.375C9.66848 4.375 9.35054 4.5067 9.11612 4.74112C8.8817 4.97554 8.75 5.29348 8.75 5.625V10C8.75 10.3315 8.8817 10.6495 9.11612 10.8839C9.35054 11.1183 9.66848 11.25 10 11.25H14.375C14.7065 11.25 15.0245 11.1183 15.2589 10.8839C15.4933 10.6495 15.625 10.3315 15.625 10C15.625 9.66848 15.4933 9.35054 15.2589 9.11612C15.0245 8.8817 14.7065 8.75 14.375 8.75Z" fill="#EB6309"/>
</svg>
