<svg width="18" height="20" viewBox="0 0 18 20" fill="none" xmlns="http://www.w3.org/2000/svg">
<path fill-rule="evenodd" clip-rule="evenodd" d="M7 9.25C7.41421 9.25 7.75 9.58579 7.75 10V15C7.75 15.4142 7.41421 15.75 7 15.75C6.58579 15.75 6.25 15.4142 6.25 15V10C6.25 9.58579 6.58579 9.25 7 9.25Z" fill="#C70000"/>
<path fill-rule="evenodd" clip-rule="evenodd" d="M11 9.25C11.4142 9.25 11.75 9.58579 11.75 10V15C11.75 15.4142 11.4142 15.75 11 15.75C10.5858 15.75 10.25 15.4142 10.25 15V10C10.25 9.58579 10.5858 9.25 11 9.25Z" fill="#C70000"/>
<path fill-rule="evenodd" clip-rule="evenodd" d="M0.25 5C0.25 4.58579 0.585786 4.25 1 4.25H17C17.4142 4.25 17.75 4.58579 17.75 5C17.75 5.41421 17.4142 5.75 17 5.75H1C0.585786 5.75 0.25 5.41421 0.25 5Z" fill="#C70000"/>
<path fill-rule="evenodd" clip-rule="evenodd" d="M3 7.25C3.41421 7.25 3.75 7.58579 3.75 8V16C3.75 16.5967 3.98705 17.169 4.40901 17.591C4.83097 18.0129 5.40326 18.25 6 18.25H12C12.5967 18.25 13.169 18.0129 13.591 17.591C14.0129 17.169 14.25 16.5967 14.25 16V8C14.25 7.58579 14.5858 7.25 15 7.25C15.4142 7.25 15.75 7.58579 15.75 8V16C15.75 16.9946 15.3549 17.9484 14.6516 18.6517C13.9484 19.3549 12.9946 19.75 12 19.75H6C5.00544 19.75 4.05161 19.3549 3.34835 18.6517C2.64509 17.9484 2.25 16.9946 2.25 16V8C2.25 7.58579 2.58579 7.25 3 7.25Z" fill="#C70000"/>
<path fill-rule="evenodd" clip-rule="evenodd" d="M8 1.75C7.66848 1.75 7.35054 1.8817 7.11612 2.11612C6.8817 2.35054 6.75 2.66848 6.75 3V4.25H11.25V3C11.25 2.66848 11.1183 2.35054 10.8839 2.11612C10.6495 1.8817 10.3315 1.75 10 1.75H8ZM6.05546 1.05546C6.57118 0.539731 7.27065 0.25 8 0.25H10C10.7293 0.25 11.4288 0.539731 11.9445 1.05546C12.4603 1.57118 12.75 2.27065 12.75 3V5C12.75 5.41421 12.4142 5.75 12 5.75H6C5.58579 5.75 5.25 5.41421 5.25 5V3C5.25 2.27065 5.53973 1.57118 6.05546 1.05546Z" fill="#C70000"/>
</svg>
