<svg width="20" height="21" viewBox="0 0 20 21" fill="none" xmlns="http://www.w3.org/2000/svg">
<path fill-rule="evenodd" clip-rule="evenodd" d="M2 9.88184C2 8.96258 2.18106 8.05233 2.53285 7.20305C2.88463 6.35377 3.40025 5.5821 4.05026 4.93209C4.70027 4.28208 5.47194 3.76646 6.32122 3.41468C7.1705 3.0629 8.08075 2.88184 9 2.88184C9.91926 2.88184 10.8295 3.0629 11.6788 3.41468C12.5281 3.76646 13.2997 4.28208 13.9498 4.93209C14.5998 5.5821 15.1154 6.35377 15.4672 7.20305C15.8189 8.05233 16 8.96258 16 9.88184C16 11.7384 15.2625 13.5188 13.9498 14.8316C12.637 16.1443 10.8565 16.8818 9 16.8818C7.14349 16.8818 5.36301 16.1443 4.05026 14.8316C2.7375 13.5188 2 11.7384 2 9.88184ZM9 0.881836C7.56238 0.881992 6.14571 1.22654 4.86859 1.88663C3.59146 2.54672 2.49105 3.50315 1.65947 4.67586C0.827885 5.84856 0.28933 7.20341 0.0888866 8.627C-0.111557 10.0506 0.0319443 11.5015 0.507377 12.8582C0.982809 14.2149 1.77634 15.438 2.82154 16.4251C3.86673 17.4122 5.13318 18.1345 6.51487 18.5317C7.89656 18.9288 9.35328 18.9891 10.7631 18.7077C12.1729 18.4262 13.4947 17.8111 14.618 16.9138L18.293 20.5888C18.4816 20.771 18.7342 20.8718 18.9964 20.8695C19.2586 20.8672 19.5094 20.7621 19.6948 20.5767C19.8802 20.3912 19.9854 20.1404 19.9877 19.8782C19.99 19.616 19.8892 19.3634 19.707 19.1748L16.032 15.4998C17.09 14.1757 17.7526 12.5797 17.9435 10.8956C18.1344 9.21149 17.8459 7.5077 17.1112 5.98033C16.3764 4.45297 15.2253 3.16411 13.7904 2.26213C12.3554 1.36014 10.6949 0.881689 9 0.881836Z" fill="#EB6309"/>
</svg>
