<svg width="21" height="22" viewBox="0 0 21 22" fill="none" xmlns="http://www.w3.org/2000/svg">
<path d="M15.534 21.2C15.997 21.2 16.4411 21.0161 16.7685 20.6887C17.0959 20.3612 17.2798 19.9172 17.2798 19.4541C17.2798 18.9911 17.0959 18.547 16.7685 18.2196C16.4411 17.8922 15.997 17.7083 15.534 17.7083C15.0709 17.7083 14.6269 17.8922 14.2994 18.2196C13.972 18.547 13.7881 18.9911 13.7881 19.4541C13.7881 19.9172 13.972 20.3612 14.2994 20.6887C14.6269 21.0161 15.0709 21.2 15.534 21.2Z" fill="#393F42"/>
<path d="M7.55301 21.2C8.01605 21.2 8.46012 21.0161 8.78753 20.6887C9.11495 20.3612 9.29889 19.9172 9.29889 19.4541C9.29889 18.9911 9.11495 18.547 8.78753 18.2196C8.46012 17.8922 8.01605 17.7083 7.55301 17.7083C7.08997 17.7083 6.6459 17.8922 6.31849 18.2196C5.99107 18.547 5.80713 18.9911 5.80713 19.4541C5.80713 19.9172 5.99107 20.3612 6.31849 20.6887C6.6459 21.0161 7.08997 21.2 7.55301 21.2Z" fill="#393F42"/>
<path d="M4.15088 2.68367L3.95135 5.1279C3.91145 5.59679 4.28058 5.98587 4.74947 5.98587H20.0234C20.4424 5.98587 20.7916 5.66663 20.8215 5.24762C20.9512 3.48178 19.6044 2.04517 17.8386 2.04517H5.57752C5.47775 1.60621 5.27822 1.1872 4.96895 0.838022C4.47013 0.30927 3.77178 0 3.05347 0H1.31757C0.908535 0 0.569336 0.3392 0.569336 0.748234C0.569336 1.15727 0.908535 1.49647 1.31757 1.49647H3.05347C3.36274 1.49647 3.65206 1.62616 3.86157 1.84564C4.07107 2.0751 4.17084 2.3744 4.15088 2.68367Z" fill="#393F42"/>
<path d="M19.7839 7.48225H4.48004C4.06103 7.48225 3.72183 7.8015 3.68193 8.21054L3.32277 12.5503C3.28852 12.9524 3.33813 13.3572 3.46846 13.7391C3.59878 14.1211 3.80699 14.4718 4.07989 14.7691C4.35279 15.0663 4.68444 15.3037 5.05385 15.4662C5.42326 15.6286 5.82237 15.7126 6.22592 15.7128H17.3197C18.8162 15.7128 20.1331 14.4857 20.2428 12.9893L20.5721 8.33025C20.5816 8.22157 20.5682 8.1121 20.5327 8.00892C20.4973 7.90574 20.4406 7.81113 20.3663 7.73122C20.2921 7.65131 20.2018 7.58786 20.1015 7.54497C20.0012 7.50209 19.893 7.48072 19.7839 7.48225Z" fill="#393F42"/>
</svg>
