<svg width="18" height="19" viewBox="0 0 18 19" fill="none" xmlns="http://www.w3.org/2000/svg">
<path d="M12.8647 18.3378C13.2464 18.3378 13.6124 18.1861 13.8823 17.9162C14.1522 17.6464 14.3038 17.2803 14.3038 16.8986C14.3038 16.5169 14.1522 16.1509 13.8823 15.881C13.6124 15.6111 13.2464 15.4595 12.8647 15.4595C12.483 15.4595 12.1169 15.6111 11.8471 15.881C11.5772 16.1509 11.4255 16.5169 11.4255 16.8986C11.4255 17.2803 11.5772 17.6464 11.8471 17.9162C12.1169 18.1861 12.483 18.3378 12.8647 18.3378Z" fill="white"/>
<path d="M6.28582 18.3378C6.66751 18.3378 7.03356 18.1861 7.30345 17.9162C7.57334 17.6464 7.72497 17.2803 7.72497 16.8986C7.72497 16.5169 7.57334 16.1509 7.30345 15.881C7.03356 15.6111 6.66751 15.4595 6.28582 15.4595C5.90414 15.4595 5.53809 15.6111 5.2682 15.881C4.9983 16.1509 4.84668 16.5169 4.84668 16.8986C4.84668 17.2803 4.9983 17.6464 5.2682 17.9162C5.53809 18.1861 5.90414 18.3378 6.28582 18.3378Z" fill="white"/>
<path d="M3.4816 3.07447L3.31712 5.08927C3.28423 5.47579 3.5885 5.79651 3.97502 5.79651H16.5655C16.9109 5.79651 17.1987 5.53335 17.2234 5.18796C17.3303 3.73237 16.2201 2.54816 14.7645 2.54816H4.65758C4.57535 2.18632 4.41087 1.84092 4.15594 1.55309C3.74475 1.11724 3.1691 0.862305 2.57699 0.862305H1.14607C0.808902 0.862305 0.529297 1.14191 0.529297 1.47908C0.529297 1.81625 0.808902 2.09586 1.14607 2.09586H2.57699C2.83193 2.09586 3.07041 2.20276 3.24311 2.38368C3.41581 2.57283 3.49804 2.81954 3.4816 3.07447Z" fill="white"/>
<path d="M16.3683 7.03009H3.75314C3.40775 7.03009 3.12814 7.29325 3.09525 7.63042L2.7992 11.2077C2.77096 11.5392 2.81186 11.8729 2.91929 12.1877C3.02671 12.5025 3.19834 12.7916 3.42329 13.0367C3.64825 13.2817 3.92163 13.4774 4.22614 13.6113C4.53064 13.7452 4.85964 13.8145 5.19229 13.8146H14.337C15.5706 13.8146 16.6561 12.8031 16.7466 11.5696L17.0179 7.72911C17.0258 7.63952 17.0147 7.54928 16.9855 7.46423C16.9563 7.37917 16.9096 7.30119 16.8483 7.23532C16.7871 7.16944 16.7128 7.11714 16.6301 7.08179C16.5474 7.04644 16.4582 7.02883 16.3683 7.03009Z" fill="white"/>
</svg>
