<svg width="17" height="17" viewBox="0 0 17 17" fill="none" xmlns="http://www.w3.org/2000/svg">
<path opacity="0.4" d="M12.0831 0.299561H14.8927C15.1706 0.300648 15.4456 0.356479 15.7019 0.463864C15.9583 0.571249 16.1909 0.728083 16.3867 0.925408C16.5824 1.12273 16.7373 1.35668 16.8425 1.61389C16.9478 1.8711 17.0014 2.14653 17.0002 2.42444V5.25901C17.0014 5.53692 16.9478 5.81235 16.8425 6.06956C16.7373 6.32677 16.5824 6.56072 16.3867 6.75804C16.1909 6.95537 15.9583 7.1122 15.7019 7.21959C15.4456 7.32697 15.1706 7.3828 14.8927 7.38389H12.0831C11.8051 7.3828 11.5302 7.32697 11.2738 7.21959C11.0175 7.1122 10.7848 6.95537 10.5891 6.75804C10.3934 6.56072 10.2385 6.32677 10.1332 6.06956C10.028 5.81235 9.9744 5.53692 9.97561 5.25901V2.42444C9.9744 2.14653 10.028 1.8711 10.1332 1.61389C10.2385 1.35668 10.3934 1.12273 10.5891 0.925408C10.7848 0.728083 11.0175 0.571249 11.2738 0.463864C11.5302 0.356479 11.8051 0.300648 12.0831 0.299561Z" fill="white"/>
<path d="M5.31655 9.81672C5.59447 9.8178 5.86945 9.87363 6.12578 9.98102C6.38211 10.0884 6.61478 10.2452 6.81048 10.4426C7.00619 10.6399 7.1611 10.8738 7.26637 11.131C7.37164 11.3883 7.42521 11.6637 7.42401 11.9416V14.7753C7.42621 15.3365 7.20544 15.8757 6.81024 16.2741C6.41504 16.6726 5.87776 16.8978 5.31655 16.9002H2.50772C2.22977 16.8991 1.95475 16.8433 1.69837 16.7359C1.44199 16.6286 1.20927 16.4717 1.0135 16.2744C0.817724 16.0771 0.662733 15.8432 0.557372 15.5859C0.452012 15.3287 0.398345 15.0533 0.399438 14.7753V11.9408C0.398236 11.6629 0.4518 11.3874 0.55707 11.1302C0.66234 10.873 0.817253 10.6391 1.01296 10.4417C1.20867 10.2444 1.44133 10.0876 1.69766 9.98019C1.954 9.8728 2.22898 9.81697 2.50689 9.81589L5.31655 9.81672ZM14.8926 9.81672C15.1706 9.8178 15.4455 9.87363 15.7019 9.98102C15.9582 10.0884 16.1909 10.2452 16.3866 10.4426C16.5823 10.6399 16.7372 10.8738 16.8425 11.131C16.9477 11.3883 17.0013 11.6637 17.0001 11.9416V14.7753C17.0023 15.3365 16.7815 15.8757 16.3863 16.2741C15.9911 16.6726 15.4539 16.8978 14.8926 16.9002H12.083C11.5218 16.8978 10.9845 16.6726 10.5893 16.2741C10.1941 15.8757 9.97332 15.3365 9.97553 14.7753V11.9408C9.97432 11.6629 10.0279 11.3874 10.1332 11.1302C10.2384 10.873 10.3933 10.6391 10.589 10.4417C10.7848 10.2444 11.0174 10.0876 11.2738 9.98019C11.5301 9.8728 11.8051 9.81697 12.083 9.81589L14.8926 9.81672ZM5.31655 0.299561C5.59447 0.300648 5.86945 0.356479 6.12578 0.463864C6.38211 0.571249 6.61478 0.728083 6.81048 0.925408C7.00619 1.12273 7.1611 1.35668 7.26637 1.61389C7.37164 1.8711 7.42521 2.14653 7.42401 2.42444V5.25901C7.42521 5.53692 7.37164 5.81235 7.26637 6.06956C7.1611 6.32677 7.00619 6.56072 6.81048 6.75804C6.61478 6.95537 6.38211 7.1122 6.12578 7.21959C5.86945 7.32697 5.59447 7.3828 5.31655 7.38389H2.50772C2.22967 7.38291 1.95453 7.32713 1.69805 7.21975C1.44156 7.11236 1.20876 6.95547 1.01296 6.75804C0.817153 6.56062 0.662183 6.32653 0.55691 6.06917C0.451638 5.81182 0.398127 5.53623 0.399438 5.25818V2.42444C0.398236 2.14653 0.4518 1.8711 0.55707 1.61389C0.66234 1.35668 0.817253 1.12273 1.01296 0.925408C1.20867 0.728083 1.44133 0.571249 1.69766 0.463864C1.954 0.356479 2.22898 0.300648 2.50689 0.299561L5.31655 0.299561Z" fill="white"/>
</svg>
