<svg width="21" height="21" viewBox="0 0 21 21" fill="none" xmlns="http://www.w3.org/2000/svg">
<path opacity="0.4" d="M14.396 0.600098H17.781C18.1158 0.601408 18.4471 0.668672 18.7559 0.798046C19.0647 0.92742 19.345 1.11637 19.5808 1.3541C19.8166 1.59183 20.0032 1.87369 20.13 2.18357C20.2569 2.49344 20.3214 2.82527 20.32 3.1601V6.5751C20.3214 6.90992 20.2569 7.24175 20.13 7.55163C20.0032 7.86151 19.8166 8.14336 19.5808 8.38109C19.345 8.61883 19.0647 8.80778 18.7559 8.93715C18.4471 9.06652 18.1158 9.13379 17.781 9.1351H14.396C14.0611 9.13379 13.7298 9.06652 13.421 8.93715C13.1122 8.80778 12.8319 8.61883 12.5961 8.38109C12.3603 8.14336 12.1737 7.86151 12.0469 7.55163C11.92 7.24175 11.8555 6.90992 11.857 6.5751V3.1601C11.8555 2.82527 11.92 2.49344 12.0469 2.18357C12.1737 1.87369 12.3603 1.59183 12.5961 1.3541C12.8319 1.11637 13.1122 0.92742 13.421 0.798046C13.7298 0.668672 14.0611 0.601408 14.396 0.600098Z" fill="#393F42"/>
<path d="M6.24397 12.0661C6.5788 12.0674 6.91009 12.1347 7.21891 12.264C7.52773 12.3934 7.80804 12.5824 8.04382 12.8201C8.2796 13.0578 8.46624 13.3397 8.59306 13.6496C8.71989 13.9594 8.78442 14.2913 8.78298 14.6261V18.0401C8.78563 18.7162 8.51965 19.3657 8.04353 19.8458C7.5674 20.3259 6.9201 20.5972 6.24397 20.6001H2.85997C2.5251 20.5988 2.19377 20.5315 1.88489 20.4022C1.57601 20.2728 1.29564 20.0839 1.05978 19.8462C0.823914 19.6084 0.637185 19.3266 0.51025 19.0167C0.383314 18.7068 0.318659 18.375 0.319975 18.0401V14.6251C0.318527 14.2903 0.38306 13.9584 0.509886 13.6486C0.636712 13.3387 0.823346 13.0568 1.05913 12.8191C1.29491 12.5814 1.57522 12.3924 1.88404 12.263C2.19286 12.1337 2.52415 12.0664 2.85897 12.0651L6.24397 12.0661ZM17.781 12.0661C18.1158 12.0674 18.4471 12.1347 18.7559 12.264C19.0647 12.3934 19.345 12.5824 19.5808 12.8201C19.8166 13.0578 20.0032 13.3397 20.1301 13.6496C20.2569 13.9594 20.3214 14.2913 20.32 14.6261V18.0401C20.3226 18.7162 20.0567 19.3657 19.5805 19.8458C19.1044 20.3259 18.4571 20.5972 17.781 20.6001H14.396C13.7198 20.5972 13.0725 20.3259 12.5964 19.8458C12.1203 19.3657 11.8543 18.7162 11.857 18.0401V14.6251C11.8555 14.2903 11.9201 13.9584 12.0469 13.6486C12.1737 13.3387 12.3603 13.0568 12.5961 12.8191C12.8319 12.5814 13.1122 12.3924 13.421 12.263C13.7299 12.1337 14.0612 12.0664 14.396 12.0651L17.781 12.0661ZM6.24397 0.600098C6.5788 0.601408 6.91009 0.668672 7.21891 0.798046C7.52773 0.92742 7.80804 1.11637 8.04382 1.3541C8.2796 1.59183 8.46624 1.87369 8.59306 2.18357C8.71989 2.49344 8.78442 2.82527 8.78298 3.1601V6.5751C8.78442 6.90992 8.71989 7.24175 8.59306 7.55163C8.46624 7.86151 8.2796 8.14336 8.04382 8.38109C7.80804 8.61883 7.52773 8.80778 7.21891 8.93715C6.91009 9.06652 6.5788 9.13379 6.24397 9.1351H2.85997C2.52498 9.13392 2.19351 9.06672 1.8845 8.93734C1.5755 8.80796 1.29503 8.61894 1.05913 8.38109C0.823226 8.14324 0.636523 7.86122 0.509693 7.55117C0.382864 7.24111 0.318395 6.90909 0.319975 6.5741V3.1601C0.318527 2.82527 0.38306 2.49344 0.509886 2.18357C0.636712 1.87369 0.823346 1.59183 1.05913 1.3541C1.29491 1.11637 1.57522 0.92742 1.88404 0.798046C2.19286 0.668672 2.52415 0.601408 2.85897 0.600098L6.24397 0.600098Z" fill="#393F42"/>
</svg>
