<svg width="16" height="16" viewBox="0 0 16 16" fill="none" xmlns="http://www.w3.org/2000/svg">
<path d="M7.99996 5.33317C6.52663 5.33317 5.33329 6.5265 5.33329 7.99984C5.33329 9.47317 6.52663 10.6665 7.99996 10.6665C9.47329 10.6665 10.6666 9.47317 10.6666 7.99984C10.6666 6.5265 9.47329 5.33317 7.99996 5.33317ZM13.96 7.33317C13.809 5.98125 13.2027 4.72086 12.2408 3.75897C11.2789 2.79707 10.0185 2.19085 8.66663 2.03984V0.666504H7.33329V2.03984C5.98137 2.19085 4.72099 2.79707 3.75909 3.75897C2.79719 4.72086 2.19097 5.98125 2.03996 7.33317H0.666626V8.66651H2.03996C2.19097 10.0184 2.79719 11.2788 3.75909 12.2407C4.72099 13.2026 5.98137 13.8088 7.33329 13.9598V15.3332H8.66663V13.9598C10.0185 13.8088 11.2789 13.2026 12.2408 12.2407C13.2027 11.2788 13.809 10.0184 13.96 8.66651H15.3333V7.33317H13.96ZM7.99996 12.6665C5.41996 12.6665 3.33329 10.5798 3.33329 7.99984C3.33329 5.41984 5.41996 3.33317 7.99996 3.33317C10.58 3.33317 12.6666 5.41984 12.6666 7.99984C12.6666 10.5798 10.58 12.6665 7.99996 12.6665Z" fill="#212121"/>
</svg>
