<svg width="20" height="19" viewBox="0 0 20 19" fill="none" xmlns="http://www.w3.org/2000/svg">
<path fill-rule="evenodd" clip-rule="evenodd" d="M10.0753 17.9177C8.03619 16.6627 6.13921 15.1857 4.41834 13.5131C3.20849 12.3085 2.28744 10.84 1.72574 9.22005C0.714958 6.07757 1.89562 2.48003 5.19979 1.41537C6.93632 0.856327 8.83288 1.17584 10.2962 2.27397C11.76 1.17718 13.6559 0.857776 15.3926 1.41537C18.6967 2.48003 19.8859 6.07757 18.8751 9.22005C18.3134 10.84 17.3924 12.3085 16.1825 13.5131C14.4616 15.1857 12.5647 16.6627 10.5255 17.9177L10.3047 18.055L10.0753 17.9177Z" stroke="white" stroke-width="1.56" stroke-linecap="round" stroke-linejoin="round"/>
<path d="M13.8127 4.95288C14.8135 5.27257 15.5246 6.17104 15.6135 7.22817" stroke="white" stroke-width="1.04" stroke-linecap="round" stroke-linejoin="round"/>
</svg>
