<svg width="23" height="23" viewBox="0 0 23 23" fill="none" xmlns="http://www.w3.org/2000/svg">
<path fill-rule="evenodd" clip-rule="evenodd" d="M11.257 21.3392C8.86936 19.8697 6.64814 18.1402 4.63312 16.1817C3.21648 14.7713 2.138 13.0518 1.48029 11.1549C0.296739 7.47532 1.67921 3.26287 5.54814 2.01623C7.58149 1.36163 9.80223 1.73576 11.5156 3.02158C13.2297 1.73733 15.4497 1.36332 17.4831 2.01623C21.3521 3.26287 22.7445 7.47532 21.5609 11.1549C20.9032 13.0518 19.8248 14.7713 18.4081 16.1817C16.3931 18.1402 14.1719 19.8697 11.7842 21.3392L11.5256 21.5001L11.257 21.3392Z" stroke="#393F42" stroke-width="1.56" stroke-linecap="round" stroke-linejoin="round"/>
<path d="M15.6332 6.1582C16.8051 6.53254 17.6377 7.58458 17.7418 8.8224" stroke="#393F42" stroke-width="1.04" stroke-linecap="round" stroke-linejoin="round"/>
</svg>
