<svg width="20" height="20" viewBox="0 0 20 20" fill="none" xmlns="http://www.w3.org/2000/svg">
<path fill-rule="evenodd" clip-rule="evenodd" d="M7.17096 18.0206V15.0765C7.17094 14.3277 7.78143 13.7192 8.53781 13.7142H11.3084C12.0684 13.7142 12.6845 14.3241 12.6845 15.0765V18.0297C12.6843 18.6655 13.1969 19.1851 13.839 19.2H15.686C17.5274 19.2 19.02 17.7223 19.02 15.8994V7.52433C19.0102 6.8072 18.6701 6.13378 18.0965 5.69572L11.7795 0.65789C10.6728 -0.219297 9.09959 -0.219297 7.99292 0.65789L1.70357 5.70486C1.1278 6.14115 0.787121 6.81569 0.780029 7.53347V15.8994C0.780029 17.7223 2.27271 19.2 4.11403 19.2H5.96112C6.61909 19.2 7.15249 18.672 7.15249 18.0206" fill="#393F42"/>
</svg>
