<svg width="15" height="15" viewBox="0 0 15 15" fill="none" xmlns="http://www.w3.org/2000/svg">
<path fill-rule="evenodd" clip-rule="evenodd" d="M5.21041 13.9857V11.7531C5.21039 11.1852 5.67334 10.7238 6.24693 10.72H8.34799C8.92432 10.72 9.39152 11.1825 9.39152 11.7531V13.9926C9.39139 14.4747 9.78009 14.8688 10.267 14.8801H11.6677C13.064 14.8801 14.196 13.7594 14.196 12.3771V6.02601C14.1885 5.48219 13.9306 4.97151 13.4956 4.63932L8.70517 0.818968C7.86595 0.153769 6.67295 0.153769 5.83372 0.818968L1.06431 4.64625C0.627677 4.9771 0.36933 5.48863 0.363953 6.03295V12.3771C0.363953 13.7594 1.4959 14.8801 2.89223 14.8801H4.29294C4.79191 14.8801 5.1964 14.4796 5.1964 13.9857" fill="white"/>
</svg>
