<svg width="22" height="21" viewBox="0 0 22 21" fill="none" xmlns="http://www.w3.org/2000/svg">
<path d="M20.48 13.65C20.0601 13.1325 19.5296 12.7156 18.9273 12.43C18.3251 12.1445 17.6665 11.9976 17 12C15.94 12 14.96 12.37 14.19 12.99C13.6605 13.4085 13.2331 13.942 12.9403 14.5502C12.6475 15.1583 12.497 15.8251 12.5 16.5C12.5 17.91 13.14 19.16 14.15 19.98C14.92 20.62 15.92 21 17 21C18.14 21 19.17 20.57 19.97 19.88C20.4497 19.457 20.8341 18.9369 21.0978 18.3542C21.3616 17.7716 21.4987 17.1396 21.5 16.5C21.5 15.42 21.12 14.42 20.48 13.65ZM18.03 16.78C18.03 17.04 17.89 17.29 17.67 17.42L16.26 18.26C16.14 18.33 16.01 18.37 15.87 18.37C15.62 18.37 15.37 18.24 15.23 18.01C15.02 17.65 15.13 17.19 15.49 16.98L16.53 16.36V15.1C16.53 14.69 16.87 14.35 17.28 14.35C17.69 14.35 18.03 14.69 18.03 15.1V16.78Z" fill="#EB6309"/>
<path d="M13.23 3.86V0.5C13.23 0.22 13.01 0 12.73 0H8.27002C7.99002 0 7.77002 0.22 7.77002 0.5V3.86C7.77002 4.14 7.99002 4.36 8.27002 4.36H12.73C13.01 4.36 13.23 4.14 13.23 3.86Z" fill="#EB6309"/>
<path d="M5.749 0.0199314C3.189 0.179931 1.439 1.49993 0.789002 3.69993C0.689002 4.02993 0.929002 4.35993 1.269 4.35993H5.769C6.049 4.35993 6.269 4.13993 6.269 3.85993V0.519931C6.26906 0.452553 6.25549 0.385859 6.22912 0.323855C6.20275 0.261851 6.16412 0.205815 6.11556 0.159115C6.06699 0.112414 6.00948 0.076012 5.94649 0.0520941C5.8835 0.0281762 5.81633 0.0172363 5.749 0.0199314Z" fill="#EB6309"/>
<path d="M15.25 0.00894511C17.81 0.168945 19.56 1.48895 20.21 3.68895C20.31 4.01895 20.07 4.34895 19.73 4.34895H15.23C14.95 4.34895 14.73 4.12895 14.73 3.84895V0.508945C14.7299 0.441567 14.7435 0.374873 14.7699 0.312868C14.7962 0.250864 14.8349 0.194829 14.8834 0.148128C14.932 0.101428 14.9895 0.0650254 15.0525 0.0411075C15.1155 0.0171897 15.1827 0.00624996 15.25 0.00894511Z" fill="#EB6309"/>
<path d="M20.5 6.36011V10.7401C20.5 11.1101 20.11 11.3501 19.78 11.1801C18.635 10.5833 17.3282 10.371 16.0532 10.5745C14.7781 10.778 13.6024 11.3865 12.7 12.3101C11.6031 13.428 10.9921 14.9339 11 16.5001C11 17.3101 11.32 18.3501 11.72 19.2201C11.88 19.5701 11.64 20.0001 11.25 20.0001H6.31C3.1 20.0001 0.5 17.4001 0.5 14.1901V6.36011C0.5 6.08011 0.72 5.86011 1 5.86011H20C20.28 5.86011 20.5 6.08011 20.5 6.36011Z" fill="#EB6309"/>
</svg>
